<svg width="27" height="29" viewBox="0 0 27 29" fill="none" xmlns="http://www.w3.org/2000/svg">
<path d="M24 2.9H22.5V1.45C22.5 0.6525 21.825 0 21 0C20.175 0 19.5 0.6525 19.5 1.45V2.9H7.5V1.45C7.5 0.6525 6.825 0 6 0C5.175 0 4.5 0.6525 4.5 1.45V2.9H3C1.335 2.9 0.015 4.205 0.015 5.8L0 26.1C0 26.8691 0.31607 27.6068 0.87868 28.1506C1.44129 28.6945 2.20435 29 3 29H24C25.65 29 27 27.695 27 26.1V5.8C27 4.205 25.65 2.9 24 2.9ZM22.5 26.1H4.5C3.675 26.1 3 25.4475 3 24.65V10.15H24V24.65C24 25.4475 23.325 26.1 22.5 26.1Z" fill="white"/>
</svg>
