<svg width="31" height="31" viewBox="0 0 31 31" fill="none" xmlns="http://www.w3.org/2000/svg">
<path d="M15.5 0C6.9404 0 0 6.9404 0 15.5C0 24.0596 6.9404 31 15.5 31C24.0596 31 31 24.0596 31 15.5C31 6.9404 24.0596 0 15.5 0ZM21.6066 20.2642L20.6171 21.6135C20.5956 21.6429 20.5684 21.6677 20.5373 21.6866C20.5061 21.7055 20.4716 21.718 20.4355 21.7235C20.3995 21.7289 20.3628 21.7272 20.3275 21.7184C20.2921 21.7097 20.2588 21.694 20.2296 21.6723L14.507 17.4998C14.4714 17.4742 14.4424 17.4404 14.4225 17.4012C14.4027 17.3621 14.3925 17.3188 14.3929 17.2749V7.75C14.3929 7.59777 14.5174 7.47321 14.6696 7.47321H16.3338C16.486 7.47321 16.6106 7.59777 16.6106 7.75V16.3131L21.5443 19.8801C21.6689 19.9666 21.6965 20.1396 21.6066 20.2642Z" fill="white"/>
</svg>
