<svg width="64" height="64" viewBox="0 0 64 64" fill="none" xmlns="http://www.w3.org/2000/svg">
<g clip-path="url(#clip0_2438_14)">
<path d="M63.4 11.0002V7.33017C63.3895 6.1833 62.9286 5.08651 62.1167 4.27645C61.3048 3.46639 60.2069 3.008 59.06 3.00017H51.21L51 2.45017C50.7162 1.72694 50.2208 1.10617 49.5785 0.669057C48.9362 0.23194 48.1769 -0.00118232 47.4 0.000174306H15.63C14.848 -0.00725608 14.0822 0.223032 13.4339 0.660542C12.7857 1.09805 12.2857 1.72214 12 2.45017L11.8 2.95017H4.34001C3.18449 2.9581 2.07914 3.42338 1.2658 4.24422C0.45246 5.06506 -0.0026598 6.17463 1.16948e-05 7.33017V11.0002C0.00196683 14.3394 1.12931 17.5805 3.20001 20.2002C5.2273 22.8229 8.11218 24.6494 11.35 25.3602L11.91 25.4602L12 26.0002C12.564 29.5553 14.0835 32.8903 16.3962 35.6486C18.7089 38.4069 21.7277 40.4848 25.13 41.6602L25.72 41.8602L25 51.6402L24.8 51.8502L24.62 52.0002C23.7814 52.5773 22.805 52.9223 21.79 53.0002C20.6693 53.1347 19.6347 53.6688 18.8761 54.5046C18.1174 55.3404 17.6857 56.4217 17.66 57.5502V60.5502H10.22C9.93819 60.5469 9.66187 60.6282 9.42669 60.7836C9.19152 60.9389 9.00829 61.1611 8.90066 61.4216C8.79303 61.6821 8.76592 61.9688 8.82284 62.2449C8.87977 62.5209 9.01811 62.7735 9.22001 62.9702C9.35087 63.1018 9.50678 63.2059 9.67853 63.2763C9.85028 63.3468 10.0344 63.3821 10.22 63.3802H52.82C53.1941 63.3796 53.5531 63.2324 53.82 62.9702C54.0791 62.7017 54.2239 62.3432 54.2239 61.9702C54.2239 61.5971 54.0791 61.2386 53.82 60.9702C53.5531 60.708 53.1941 60.5608 52.82 60.5602H45.41V57.5602C45.3847 56.4306 44.9532 55.348 44.1948 54.5105C43.4363 53.6731 42.4016 53.1369 41.28 53.0002C40.2585 52.9239 39.2752 52.5789 38.43 52.0002C38.3718 51.9556 38.3182 51.9054 38.27 51.8502L38.07 51.6402L37.32 41.8602L37.9 41.6602C41.2876 40.486 44.2916 38.4119 46.59 35.6602C48.8874 32.9245 50.4102 29.6235 51 26.1002L51.09 25.5602L51.63 25.4502C54.9442 24.7736 57.9225 22.9718 60.06 20.3502C62.2153 17.7102 63.3949 14.4082 63.4 11.0002ZM11.75 22.6002L10.68 22.2202C8.36755 21.3956 6.36828 19.8732 4.95847 17.8633C3.54867 15.8534 2.79793 13.4552 2.81001 11.0002V7.33017C2.81 6.92357 2.96773 6.53282 3.25001 6.24017C3.39323 6.09724 3.5632 5.98392 3.75023 5.90671C3.93726 5.8295 4.13767 5.7899 4.34001 5.79017H11.75V22.6002ZM40.86 55.8002C41.3371 55.8685 41.7791 56.0895 42.12 56.4302C42.2666 56.5738 42.3853 56.7433 42.47 56.9302C42.5495 57.1241 42.5936 57.3307 42.6 57.5402V60.5402H20.43V57.5402C20.435 57.3263 20.4826 57.1155 20.57 56.9202C20.6475 56.7238 20.771 56.5489 20.93 56.4102C21.2653 56.0747 21.7004 55.8571 22.17 55.7902C23.6895 55.6418 25.1407 55.0856 26.37 54.1802C27.0466 53.6591 27.5232 52.9211 27.72 52.0902C27.7505 51.9789 27.7706 51.8651 27.78 51.7502V51.6402L28.48 42.4902L29.3 42.5902C30.7723 42.7502 32.2577 42.7502 33.73 42.5902L34.55 42.4902L35.25 51.5702C35.2548 51.7449 35.2749 51.9189 35.31 52.0902C35.5068 52.9211 35.9835 53.6591 36.66 54.1802C37.8902 55.0857 39.3404 55.645 40.86 55.8002ZM48.47 22.8002C48.4711 25.039 48.03 27.256 47.1719 29.3239C46.3139 31.3918 45.0558 33.2698 43.47 34.8502C41.8996 36.4357 40.0305 37.6943 37.9708 38.5532C35.9111 39.4121 33.7016 39.8544 31.47 39.8544C29.2384 39.8544 27.0289 39.4121 24.9692 38.5532C22.9095 37.6943 21.0404 36.4357 19.47 34.8502C16.2794 31.6706 14.481 27.3546 14.47 22.8502V3.91017C14.47 3.62546 14.5824 3.35227 14.7828 3.15001C14.9832 2.94776 15.2553 2.83281 15.54 2.83017H47.4C47.6847 2.83281 47.9568 2.94776 48.1572 3.15001C48.3576 3.35227 48.47 3.62546 48.47 3.91017V22.8002ZM52.32 22.3102L51.32 22.6402V5.79017H59.1C59.3023 5.7899 59.5028 5.8295 59.6898 5.90671C59.8768 5.98392 60.0468 6.09724 60.19 6.24017C60.4723 6.53282 60.63 6.92357 60.63 7.33017V11.0002C60.6435 13.5327 59.8433 16.0025 58.3472 18.0459C56.8511 20.0893 54.7383 21.5982 52.32 22.3502V22.3102Z" fill="white"/>
</g>
<defs>
<clipPath id="clip0_2438_14">
<rect width="63.4" height="63.4" fill="white"/>
</clipPath>
</defs>
</svg>
