<svg width="65" height="65" viewBox="0 0 65 65" fill="none" xmlns="http://www.w3.org/2000/svg">
<path fill-rule="evenodd" clip-rule="evenodd" d="M12.0158 26.9484C8.60403 26.17 5.55658 24.2486 3.3733 21.4994C1.19003 18.7503 0.000560531 15.3365 0 11.8182V8.125C0 5.27091 2.30328 2.95455 5.14124 2.95455H12.0863C12.7797 1.22318 14.466 0 16.4343 0H48.1984C50.1668 0 51.8531 1.22318 52.5464 2.95455H59.8588C62.6967 2.95455 65 5.27091 65 8.125V11.8182C64.9997 15.4036 63.7648 18.8784 61.5052 21.6517C59.2456 24.4251 56.1008 26.3259 52.6052 27.0311C51.9937 30.7155 50.4028 34.1649 48.0009 37.0142C45.5991 39.8634 42.4758 42.0064 38.9618 43.2161L39.6405 52.0886C39.6716 52.1215 39.7049 52.1521 39.7403 52.1802C39.9724 52.3723 40.6305 52.78 42.1964 53.0134C44.6583 53.3798 47.0056 55.4066 47.0056 58.3523V60.5682H53.6158C54.2002 60.5682 54.7606 60.8016 55.1739 61.2172C55.5871 61.6328 55.8192 62.1964 55.8192 62.7841C55.8192 63.3718 55.5871 63.9354 55.1739 64.351C54.7606 64.7665 54.2002 65 53.6158 65H11.0169C10.4326 65 9.87213 64.7665 9.45892 64.351C9.0457 63.9354 8.81356 63.3718 8.81356 62.7841C8.81356 62.1964 9.0457 61.6328 9.45892 61.2172C9.87213 60.8016 10.4326 60.5682 11.0169 60.5682H17.6271V58.3523C17.6271 55.4095 19.9774 53.3798 22.4364 53.0134C24.0023 52.777 24.6603 52.3723 24.8924 52.1802C24.9278 52.152 24.9612 52.1214 24.9923 52.0886L25.671 43.2161C22.1435 42.0013 19.0102 39.8461 16.6053 36.9805C14.2004 34.115 12.6141 30.6466 12.0158 26.9455V26.9484ZM11.7514 7.38636H5.14124C4.94645 7.38636 4.75964 7.46418 4.6219 7.60271C4.48416 7.74123 4.40678 7.9291 4.40678 8.125V11.8182C4.40675 14.1099 5.11297 16.3453 6.42826 18.2168C7.74355 20.0882 9.60325 21.5037 11.7514 22.2684V7.38636ZM30.016 44.1911L29.3844 52.4432L29.3815 52.5052L29.3727 52.6323C29.36 52.7782 29.3384 52.9233 29.308 53.0666C29.1611 53.7668 28.7381 54.7418 27.6834 55.6075C26.661 56.4525 25.1774 57.0848 23.0827 57.395C22.7781 57.4375 22.4956 57.5785 22.2777 57.7968C22.2024 57.8684 22.142 57.9544 22.1001 58.0498C22.0582 58.1452 22.0357 58.248 22.0339 58.3523V60.5682H42.5989V58.3523C42.597 58.248 42.5745 58.1452 42.5327 58.0498C42.4908 57.9544 42.4304 57.8684 42.355 57.7968C42.1371 57.5787 41.8546 57.4377 41.5501 57.395C39.4554 57.0848 37.9718 56.4495 36.9464 55.6105C35.8947 54.7418 35.4716 53.7668 35.3247 53.0695C35.2855 52.8847 35.2609 52.697 35.2513 52.5082L35.2484 52.4432L34.6167 44.1911C33.0879 44.3623 31.5449 44.3623 30.016 44.1911ZM52.8814 22.3895V7.38636H59.8588C60.0535 7.38636 60.2404 7.46418 60.3781 7.60271C60.5158 7.74123 60.5932 7.9291 60.5932 8.125V11.8182C60.5932 16.7818 57.3498 20.9773 52.8814 22.3895ZM16.1582 4.70955C16.1582 4.55591 16.2816 4.43182 16.4343 4.43182H48.1984C48.3512 4.43182 48.4746 4.55591 48.4746 4.70955V23.6364C48.4746 27.9461 46.7722 32.0794 43.742 35.1269C40.7117 38.1743 36.6018 39.8864 32.3164 39.8864C28.031 39.8864 23.9211 38.1743 20.8908 35.1269C17.8606 32.0794 16.1582 27.9461 16.1582 23.6364V4.70955Z" fill="white"/>
</svg>
