<svg width="27" height="29" viewBox="0 0 27 29" fill="none" xmlns="http://www.w3.org/2000/svg">
<path d="M10.26 22.4315L13.125 19.662L15.99 22.4315C16.425 22.852 17.145 22.852 17.58 22.4315C18.015 22.011 18.015 21.315 17.58 20.8945L14.715 18.125L17.58 15.3555C18.015 14.935 18.015 14.239 17.58 13.8185C17.3683 13.6163 17.0826 13.5028 16.785 13.5028C16.4874 13.5028 16.2017 13.6163 15.99 13.8185L13.125 16.588L10.26 13.8185C10.0483 13.6163 9.76265 13.5028 9.465 13.5028C9.16736 13.5028 8.88171 13.6163 8.67 13.8185C8.235 14.239 8.235 14.935 8.67 15.3555L11.535 18.125L8.67 20.8945C8.235 21.315 8.235 22.011 8.67 22.4315C9.105 22.852 9.825 22.852 10.26 22.4315ZM24 2.9H22.5V1.45C22.5 0.6525 21.825 0 21 0C20.175 0 19.5 0.6525 19.5 1.45V2.9H7.5V1.45C7.5 0.6525 6.825 0 6 0C5.175 0 4.5 0.6525 4.5 1.45V2.9H3C1.335 2.9 0.015 4.205 0.015 5.8L0 26.1C0 26.8691 0.31607 27.6068 0.87868 28.1506C1.44129 28.6945 2.20435 29 3 29H24C25.65 29 27 27.695 27 26.1V5.8C27 4.205 25.65 2.9 24 2.9ZM22.5 26.1H4.5C3.675 26.1 3 25.4475 3 24.65V10.15H24V24.65C24 25.4475 23.325 26.1 22.5 26.1Z" fill="white"/>
</svg>
