<svg width="86" height="44" viewBox="0 0 86 44" fill="none" xmlns="http://www.w3.org/2000/svg">
<path d="M64.1419 11.3859C63.5176 11.1279 62.8015 11.4247 62.5432 12.0494L59.8095 18.6622L57.0758 12.0494C56.8174 11.4249 56.1017 11.1274 55.4771 11.3859C54.8524 11.6441 54.5552 12.3598 54.8136 12.9845L58.6164 22.1833C59.0439 23.2173 60.5904 23.1807 61.0026 22.1833L64.8054 12.9845C65.0637 12.3598 64.7666 11.6441 64.1419 11.3859V11.3859ZM72.5108 18.3837C75.9953 16.5525 74.6629 11.293 70.7678 11.293H67.6731C66.9972 11.293 66.4491 11.841 66.4491 12.5169V21.8042C66.4491 22.4803 66.997 23.028 67.6731 23.028C68.349 23.028 68.8969 22.4801 68.8969 21.8042V18.8135H69.8609L72.283 22.4789C72.6556 23.0428 73.4149 23.1982 73.9788 22.8253C74.5429 22.4527 74.6979 21.6935 74.3252 21.1295L72.5108 18.3837ZM70.7678 16.3659H68.8969V13.7409H70.7678C71.4915 13.7409 72.0803 14.3298 72.0803 15.0534C72.0803 15.777 71.4915 16.3659 70.7678 16.3659ZM10.065 21.9853C9.38912 21.9853 8.8412 22.5332 8.8412 23.2092V25.1303C8.8412 25.8064 9.38912 26.3543 10.065 26.3543C10.7409 26.3543 11.289 25.8064 11.289 25.1303V23.2092C11.289 22.5332 10.7409 21.9853 10.065 21.9853V21.9853ZM16.0837 8.8412C11.887 8.8412 8.84103 11.8871 8.84103 16.0838V19.047C8.84103 19.7231 9.38895 20.271 10.0649 20.271C10.7408 20.271 11.2888 19.7231 11.2888 19.047V16.0838C11.2888 13.6972 12.7713 11.2892 16.0837 11.2892C16.7596 11.2892 17.3077 10.7413 17.3077 10.0652C17.3077 9.38912 16.7596 8.8412 16.0837 8.8412ZM82.9013 15.3599H81.6661C81.5888 9.26532 76.6097 4.33057 70.497 4.33057H51.3437V3.09886C51.3437 1.39011 49.9536 0 48.245 0H37.755C36.0464 0 34.6563 1.39011 34.6563 3.09886V4.33057H15.503C9.39046 4.33057 4.41136 9.26549 4.33393 15.3599H3.09869C1.39011 15.3599 0 16.75 0 18.4588V28.9487C0 30.6573 1.39011 32.0474 3.09886 32.0474H4.3341C4.41136 38.142 9.39046 43.0769 15.5032 43.0769H34.0748C36.6286 43.0769 38.7062 40.9993 38.7062 38.4457C38.7062 37.1544 39.7565 36.104 41.0477 36.104H44.9525C46.2436 36.104 47.294 37.1545 47.294 38.4457C47.294 40.9993 49.3716 43.0769 51.9254 43.0769H70.497C76.6097 43.0769 81.5888 38.142 81.6661 32.0474H82.9013C84.6099 32.0474 86 30.6573 86 28.9487V18.4588C86 16.75 84.6099 15.3599 82.9013 15.3599V15.3599ZM4.3304 29.5995H3.09886C2.73991 29.5995 2.44781 29.3075 2.44781 28.9486V18.4586C2.44781 18.0996 2.73991 17.8075 3.09886 17.8075H4.3304V29.5995ZM37.1041 3.09886C37.1041 2.73991 37.3962 2.44781 37.755 2.44781H48.245C48.6039 2.44781 48.8959 2.73991 48.8959 3.09886V4.33057H37.1041V3.09886ZM79.2005 31.9043C79.2005 36.7034 75.296 40.6078 70.497 40.6078H51.9254C50.7331 40.6078 49.7631 39.6378 49.7631 38.4455C49.7631 35.7928 47.605 33.6347 44.9523 33.6347H41.0475C38.395 33.6347 36.2367 35.7928 36.2367 38.4455C36.2367 39.6378 35.2669 40.6078 34.0745 40.6078H15.503C10.704 40.6078 6.79954 36.7034 6.79954 31.9043V15.503C6.79954 10.704 10.704 6.79954 15.503 6.79954H70.497C75.296 6.79954 79.2005 10.704 79.2005 15.503V31.9043ZM83.5522 28.9487C83.5522 29.3077 83.2601 29.5996 82.9013 29.5996H81.6698V17.8079H82.9013C83.2603 17.8079 83.5522 18.1 83.5522 18.4589V28.9487Z" fill="white"/>
</svg>
