<svg id="Capa_1" data-name="Capa 1" xmlns="http://www.w3.org/2000/svg" viewBox="0 0 390 306"><defs><style>.cls-1{fill:#383135;}.cls-2{fill:#616160;}.cls-3{fill:#c9c6c6;}.cls-4{fill:none;stroke:#9d9d9c;stroke-miterlimit:3.86;stroke-width:3px;}.cls-5,.cls-6{opacity:0.32;}.cls-6{fill:#7c7c7d;}.cls-18,.cls-6,.cls-8,.cls-9{isolation:isolate;}.cls-7,.cls-8,.cls-9{opacity:0.69;}.cls-14,.cls-15,.cls-8,.cls-9{fill:#fff;}.cls-10,.cls-15,.cls-8{fill-rule:evenodd;}.cls-10{fill:#509033;}.cls-11{fill:#57933f;}.cls-12{fill:#4f7b39;}.cls-13{fill:#5b814a;}.cls-16{fill:#c21630;}.cls-17,.cls-18{opacity:0.78;}.cls-18,.cls-19{fill:#fffefe;}.cls-20{fill:#3f9;stroke:#fff;stroke-miterlimit:10;stroke-width:2px;}</style></defs><path class="cls-1" d="M390,0H0V305.92H390Z"/><path class="cls-2" d="M51,0,3.46,305.92H32.19L79.7,0Z"/><path class="cls-2" d="M0,265.07l203.74,40.4,146,.34L0,236Z"/><path class="cls-3" d="M111.8,161.46c-5.51,34.51,16.75,66.72,49.64,72l137.23,21.88c32.93,5.24,64.06-18.47,69.56-53l12.52-78.41c5.5-34.51-16.75-66.72-49.68-72L193.88,30.12c-32.93-5.24-64.06,18.47-69.56,53Z"/><path class="cls-4" d="M111.8,161.46c-5.51,34.51,16.75,66.72,49.64,72l137.23,21.88c32.93,5.24,64.06-18.47,69.56-53l12.52-78.41c5.5-34.51-16.75-66.72-49.68-72L193.88,30.12c-32.93-5.24-64.06,18.47-69.56,53Z"/><g class="cls-5"><g class="cls-5"><g class="cls-5"><path class="cls-6" d="M111.5,182.52a69.35,69.35,0,0,0,7.27,20,59.71,59.71,0,0,0,9.89,13.3L179.31,175l-4-7-64.17,10.49Z"/></g></g></g><g class="cls-5"><g class="cls-5"><g class="cls-5"><path class="cls-6" d="M360.93,222.49a71,71,0,0,1-13.11,16.79,59.41,59.41,0,0,1-13.53,9.55l-35.44-54.55,6-5.35,57.73,29.93Z"/></g></g></g><path class="cls-1" d="M374.19,132.77l-.41,2.55-.71-.12.26-1.65-.71-.11-.23,1.43-.71-.12.22-1.42-1.31-.23.12-.89Z"/><path class="cls-1" d="M373.52,137.3a1.82,1.82,0,0,1-3.6-.56,1.82,1.82,0,0,1,3.6.56Zm-2.81-.45c-.08.56.37.9.9,1s1,0,1.16-.64-.38-.9-.9-1S370.78,136.25,370.71,136.85Z"/><path class="cls-1" d="M373.1,139.47l-.15.9-2.32.87v0l2.14.34-.15.82-3.45-.52.15-.94,2.36-.86-2.17-.34.15-.86Z"/><path class="cls-1" d="M372.54,143.07l-.22,1.5a1.75,1.75,0,0,1-3.45-.56l.23-1.5Zm-2.84.45-.08.41c-.07.68.11,1,.82,1.12a.86.86,0,0,0,1.05-.59.47.47,0,0,0,0-.23l.08-.41Z"/><path class="cls-1" d="M371.76,148.32a1.83,1.83,0,0,1-3.6-.57,1.83,1.83,0,0,1,3.6.57Zm-2.81-.45c-.08.56.37.89.9,1s1-.08,1.16-.64-.38-.9-.9-1S369.06,147.27,369,147.87Z"/><path class="cls-1" d="M368.68,152.36c-.41,0-.6.19-.63.56s0,.57.26.6.45-.41.67-.9.53-.93,1.16-.86.94.94.83,1.58a1.26,1.26,0,0,1-1.35,1.19l.15-.9c.3.08.45-.22.49-.48s0-.45-.23-.49-.37.45-.6.94-.52.93-1.16.82c-.86-.15-1-.93-.9-1.68s.6-1.43,1.46-1.32Z"/><path class="cls-1" d="M368.08,157.91a1.52,1.52,0,0,1,.45-3l2,.34-.15.9-2.1-.34c-.45-.08-.71.07-.75.48a.58.58,0,0,0,.56.72l2.1.33-.15.9Z"/><path class="cls-1" d="M370,158.84l-.26,1.76c-.11.6-.45,1.16-1.16,1.05a.92.92,0,0,1-.79-.67c-.15.33-.56.37-.9.37a2.55,2.55,0,0,0-.78,0l.15-.9a1.32,1.32,0,0,1,.56,0c.33,0,.71,0,.79-.37l.11-.68-1.28-.18.15-.9Zm-1.65.68-.11.74a.33.33,0,0,0,.26.45h.08c.26,0,.41-.14.45-.41l.11-.71Z"/><path class="cls-1" d="M369.13,164.8l-.11.75-3.37-1.87.11-.75Z"/><path class="cls-1" d="M366.25,167.68a.54.54,0,0,0-.64.56c0,.27,0,.57.26.61s.45-.42.68-.9.52-.94,1.16-.87.94.94.82,1.58a1.27,1.27,0,0,1-1.35,1.2l.15-.9c.31.07.46-.23.49-.49s0-.45-.22-.49-.38.45-.6.94-.53.94-1.16.82c-.86-.15-1-.93-.9-1.68s.6-1.43,1.46-1.31Z"/><path class="cls-1" d="M368.16,170.57l-.45,2.73-.71-.11.3-1.84-.6-.11-.3,1.69-.68-.11.27-1.69-.68-.11-.3,1.91-.75-.11.45-2.81Z"/><path class="cls-1" d="M366,176a.62.62,0,0,0,.64-.6c.07-.6-.37-.9-.9-1s-1.05,0-1.16.64a.63.63,0,0,0,.49.78h.07l-.15.9a1.47,1.47,0,0,1-1.16-1.72v-.08a1.83,1.83,0,0,1,3.6.57,1.47,1.47,0,0,1-1.58,1.34Z"/><path class="cls-1" d="M365.84,180.16l.15-1-2.66-.41.11-.9,2.7.45.15-1.05.78.11-.49,3Z"/><path class="cls-1" d="M366.36,182.26a1.83,1.83,0,1,1-1.53-2A1.66,1.66,0,0,1,366.36,182.26Zm-2.81-.45c-.07.56.38.9.9,1s1.05-.07,1.16-.64-.37-.9-.9-1S363.63,181.24,363.55,181.81Z"/><path class="cls-1" d="M366,184.43l-.3,1.76c-.11.6-.45,1.16-1.16,1.05a.92.92,0,0,1-.79-.68c-.15.34-.56.38-.9.38a2.55,2.55,0,0,0-.78,0l.15-.9a1.32,1.32,0,0,1,.56,0c.33,0,.71,0,.78-.38l.12-.67-1.28-.19.15-.9Zm-1.65.67-.11.75a.33.33,0,0,0,.26.45h.07a.4.4,0,0,0,.46-.37l.11-.72Z"/><path class="cls-1" d="M363.55,191.55a.63.63,0,0,0,.64-.6c.07-.57-.38-.9-.9-1s-1.05.08-1.16.64a.65.65,0,0,0,.48.79h.08l-.15.89a1.5,1.5,0,0,1-1.2-1.72v-.07a1.82,1.82,0,0,1,3.6.56,1.47,1.47,0,0,1-1.58,1.35Z"/><path class="cls-1" d="M117.46,155.84l.37-2.54.75.11-.26,1.65.68.11.22-1.42.71.11-.22,1.42,1.35.23-.15.9Z"/><path class="cls-1" d="M118.1,151.31a1.82,1.82,0,1,1,1.53,2A1.7,1.7,0,0,1,118.1,151.31Zm2.8.45c.08-.6-.37-.9-.89-1s-1.05,0-1.16.64.37.89.89,1S120.83,152.36,120.9,151.76Z"/><path class="cls-1" d="M118.51,149.14l.15-.94,2.32-.82v0l-2.13-.34.15-.82,3.44.52-.15.94-2.36.86,2.17.34-.15.86Z"/><path class="cls-1" d="M119.07,145.54l.22-1.5a1.62,1.62,0,0,1,2-1.42,1.59,1.59,0,0,1,1.46,2l-.22,1.49Zm2.85-.45.07-.41c.11-.67-.11-1-.82-1.12a.87.87,0,0,0-1,.6.43.43,0,0,0,0,.22l-.07.41Z"/><path class="cls-1" d="M119.86,140.3a1.82,1.82,0,1,1,1.53,2A1.68,1.68,0,0,1,119.86,140.3Zm2.81.45c.07-.57-.38-.9-.9-1s-1,.08-1.16.64.37.9.89,1S122.59,141.31,122.67,140.75Z"/><path class="cls-1" d="M120.49,136.59l.15-.9,2.33-.86-2.1-.34.11-.86,3.45.52-.15.94L122,136l2.14.38-.11.82Z"/><path class="cls-1" d="M121.28,131.42a1.82,1.82,0,0,1,3.6.56,1.82,1.82,0,0,1-3.6-.56Zm2.81.45c.07-.6-.38-.9-.9-1s-1,0-1.16.63.37.9.9,1S124,132.47,124.09,131.87Z"/><path class="cls-1" d="M121.69,129.25l.3-1.76c.11-.6.45-1.17,1.16-1a.91.91,0,0,1,.79.67c.15-.34.56-.37.9-.37a2.91,2.91,0,0,0,.78,0l-.14.9a1.82,1.82,0,0,1-.57,0c-.33,0-.71,0-.78.37l-.12.67,1.24.19-.15.9Zm1.65-.68.11-.75a.33.33,0,0,0-.26-.45h-.08c-.26,0-.41.15-.44.42l-.12.71Z"/><path class="cls-1" d="M123.45,123.21l-.18,1.05,2.69.42-.15.89-2.69-.41-.15,1-.79-.11.49-3Z"/><path class="cls-1" d="M122.74,122.69l.41-2.73.75.11-.3,1.87.6.08.26-1.69.72.11-.3,1.69.67.11.3-1.91.79.11-.45,2.81Z"/><path class="cls-1" d="M123.57,116.92l.14-.75,3.38,1.87-.12.75Z"/><path class="cls-1" d="M126.45,114c.41,0,.56-.19.64-.57s0-.56-.27-.6-.44.42-.67.91-.52.93-1.16.86-.94-.94-.82-1.58.56-1.31,1.31-1.2l-.15.9c-.3-.07-.45.23-.49.49s0,.45.22.49.38-.45.6-.94.53-.94,1.16-.82c.87.15,1.05.93.94,1.68s-.6,1.43-1.46,1.31Z"/><path class="cls-1" d="M124.58,111.15l.41-2.73.75.11-.3,1.83.6.12.26-1.69.71.08-.26,1.68.64.12.3-1.88.78.11-.45,2.81Z"/><path class="cls-1" d="M126.71,105.76a.63.63,0,0,0-.64.6c-.07.56.38.9.9,1s1.05-.07,1.17-.64a.65.65,0,0,0-.49-.78h-.08l.15-.9a1.47,1.47,0,0,1,1.16,1.72v.08a1.82,1.82,0,0,1-3.59-.57,1.49,1.49,0,0,1,1.53-1.38Z"/><path class="cls-1" d="M126.9,101.56l-.19,1,2.7.45-.15.9-2.66-.45-.19,1-.75-.15.45-2.92Z"/><path class="cls-1" d="M126.38,99.46a1.82,1.82,0,1,1,1.53,2A1.68,1.68,0,0,1,126.38,99.46Zm2.8.45c.08-.56-.37-.9-.89-1s-1,0-1.17.64.38.89.9,1S129.07,100.47,129.18,99.91Z"/><path class="cls-1" d="M126.79,97.25l.3-1.76c.11-.6.48-1.16,1.16-1a.94.94,0,0,1,.79.68c.14-.34.56-.38.89-.38.15,0,.68.08.79,0l-.15.89a1.32,1.32,0,0,1-.56,0c-.34,0-.71,0-.79.38l-.11.67,1.27.19-.15.9Zm1.64-.63.12-.75a.33.33,0,0,0-.26-.45h-.08c-.26,0-.41.15-.45.41l-.11.71Z"/><path class="cls-1" d="M127.57,92.23l.23-1.46a1.6,1.6,0,0,1,2-1.42,1.57,1.57,0,0,1,1.46,2L131,92.79Zm2.81-.45.08-.41c.07-.67-.11-1-.83-1.12a.86.86,0,0,0-1,.6.43.43,0,0,0,0,.22l-.08.41Z"/><path class="cls-1" d="M220.11,230.47v-.19c0-.07-.08-.11-.12-.11s-.11,0-.14,0a.19.19,0,0,0-.08.15c0,.07,0,.15,0,.18a.4.4,0,0,0,.18.16c.08,0,.15.11.23.15a.87.87,0,0,1,.22.18.83.83,0,0,1-.11,1.16,1.47,1.47,0,0,1-1,0,.63.63,0,0,1-.26-.15.29.29,0,0,1-.11-.22.5.5,0,0,1,0-.34v-.07l.63.07v.08c0,.07,0,.15,0,.22a.25.25,0,0,0,.3.08h0a.4.4,0,0,0,.07-.15.27.27,0,0,0,0-.19c0-.08-.11-.11-.18-.15a1,1,0,0,1-.23-.15.93.93,0,0,1-.22-.19.49.49,0,0,1-.15-.26,1.17,1.17,0,0,1,0-.37.71.71,0,0,1,.3-.57.94.94,0,0,1,.64-.11.89.89,0,0,1,.6.26.88.88,0,0,1,.11.6l-.6-.07Z"/><path class="cls-1" d="M222.32,230.13l.22,2.59-.67-.11v-.45l-.53-.08-.15.41-.67-.11,1-2.4Zm-.49.45-.34,1,.38,0Z"/><path class="cls-1" d="M223.7,230.32l-.3,2,.79.11-.07.53-1.47-.23.38-2.51Z"/><path class="cls-1" d="M225.88,230.66l.22,2.58-.67-.11v-.45l-.53-.07-.11.41-.67-.12,1-2.39Zm-.49.45-.34,1,.38,0Z"/><path class="cls-1" d="M228.54,231.07a.63.63,0,0,1,.48.26.57.57,0,0,1,.11.49c0,.07,0,.11,0,.19a.61.61,0,0,1-.26.26.34.34,0,0,1-.19,0,.21.21,0,0,1,.19.11,1.43,1.43,0,0,0,.11.15,1.07,1.07,0,0,1,.07.19v.18a.82.82,0,0,1-.07.3c0,.08-.11.15-.15.23a.36.36,0,0,1-.26.11.62.62,0,0,1-.38,0l-1-.15.37-2.51Zm-.49,2a.44.44,0,0,0,.19,0,.35.35,0,0,0,.11-.23c0-.07,0-.15,0-.22a.37.37,0,0,0-.15-.11l-.19,0-.07.6Zm.15-1c.07,0,.11,0,.15,0a.27.27,0,0,0,.07-.19.36.36,0,0,0,0-.19,1.18,1.18,0,0,0-.15-.11l-.15,0L228,232Z"/><path class="cls-1" d="M229.88,233.09a.39.39,0,0,0,0,.26.2.2,0,0,0,.15.08s.12,0,.15,0a.49.49,0,0,0,.08-.22l.26-1.8.64.11-.26,1.65a1.23,1.23,0,0,1-.12.41.61.61,0,0,1-.18.26.42.42,0,0,1-.3.12h-.38a1.55,1.55,0,0,1-.37-.08.57.57,0,0,1-.26-.19.39.39,0,0,1-.12-.3.86.86,0,0,1,0-.45l.26-1.64.64.11Z"/><path class="cls-1" d="M232.32,232.31v-.19s-.08-.11-.11-.11-.12,0-.15,0a.2.2,0,0,0-.08.15.27.27,0,0,0,0,.19.36.36,0,0,0,.19.15l.22.15a1,1,0,0,1,.23.19.39.39,0,0,1,.15.26,1.58,1.58,0,0,1,0,.38.71.71,0,0,1-.3.56,1,1,0,0,1-.67.07,2.41,2.41,0,0,1-.38-.07,1.43,1.43,0,0,1-.26-.15.35.35,0,0,1-.11-.23.5.5,0,0,1,0-.34v-.07l.64.07v.08c0,.08,0,.15,0,.22a.21.21,0,0,0,.16.08c.07,0,.11,0,.14,0a.28.28,0,0,0,.08-.15.28.28,0,0,0,0-.19.36.36,0,0,0-.18-.14l-.23-.15a1.77,1.77,0,0,1-.23-.19.6.6,0,0,1-.14-.26,1.26,1.26,0,0,1,0-.38.71.71,0,0,1,.3-.56.91.91,0,0,1,.63-.11.68.68,0,0,1,.72.86l-.6-.08Z"/><path class="cls-1" d="M234,231.89l-.38,2.51-.63-.11.37-2.51Z"/><path class="cls-1" d="M235,232l.19,1.61.22-1.53.6.07-.37,2.51-.72-.11-.18-1.61-.23,1.54-.6-.08.38-2.51Z"/><path class="cls-1" d="M237.79,232.46l-.08.52-.82-.11-.07.41.78.11-.07.53-.79-.12-.08.49.87.11-.08.53-1.5-.23.38-2.51Z"/><path class="cls-1" d="M238.91,233.32v-.19s-.07-.11-.11-.11a.22.22,0,0,0-.15,0,.2.2,0,0,0-.07.16.32.32,0,0,0,0,.18.4.4,0,0,0,.19.15c.08,0,.15.11.22.15a.8.8,0,0,1,.23.19.66.66,0,0,1,.15.26,1.2,1.2,0,0,1,0,.38.74.74,0,0,1-.3.56,1.07,1.07,0,0,1-.68.07,1,1,0,0,1-.33-.07,1.22,1.22,0,0,1-.27-.15.35.35,0,0,1-.11-.23.47.47,0,0,1,0-.33v-.08l.64.08v.07c0,.08,0,.15,0,.23a.19.19,0,0,0,.15.07c.07,0,.11,0,.15,0a.3.3,0,0,0,.07-.15c0-.07,0-.15,0-.18a.3.3,0,0,0-.18-.15l-.23-.15a1.24,1.24,0,0,1-.22-.19.53.53,0,0,1-.15-.26,1.26,1.26,0,0,1,0-.38.71.71,0,0,1,.3-.56.94.94,0,0,1,.64-.11.91.91,0,0,1,.6.26.93.93,0,0,1,.11.6l-.6-.08Z"/><path class="cls-1" d="M240.79,233.58v-.19s-.08-.11-.12-.11-.11,0-.15,0a.19.19,0,0,0-.07.15c0,.07,0,.15,0,.18a.3.3,0,0,0,.18.15l.23.16a.87.87,0,0,1,.22.18.53.53,0,0,1,.15.26.84.84,0,0,1-.3.94.88.88,0,0,1-.67.08c-.11,0-.23,0-.34-.08a.87.87,0,0,1-.26-.15.29.29,0,0,1-.11-.22.5.5,0,0,1,0-.34v-.11l.63.07v.08a.25.25,0,0,0,0,.22.2.2,0,0,0,.15.08.33.33,0,0,0,.19,0,.26.26,0,0,0,.07-.15.34.34,0,0,0,0-.19.47.47,0,0,0-.19-.15.75.75,0,0,1-.23-.15.93.93,0,0,1-.22-.19.51.51,0,0,1-.15-.26,1.17,1.17,0,0,1,0-.37.82.82,0,0,1,.3-.56.94.94,0,0,1,.64-.12.9.9,0,0,1,.6.27.84.84,0,0,1,.11.59l-.6-.07Z"/><path class="cls-1" d="M207.41,234.78l-1-.19-.42,2.7-.9-.15.42-2.66-1.05-.15.11-.79,3,.45Z"/><path class="cls-1" d="M207.93,234.07l1.76.26c.6.07,1.16.45,1.05,1.16a.93.93,0,0,1-.67.79c.37.15.41.56.37.9a1.72,1.72,0,0,0,0,.78l-.9-.15a1.32,1.32,0,0,1,0-.56c0-.34,0-.71-.41-.79l-.68-.11-.18,1.24-.9-.15Zm.68,1.61.74.11a.33.33,0,0,0,.45-.26v-.08c0-.26-.15-.41-.41-.45l-.71-.11Z"/><path class="cls-1" d="M211.45,234.62l-.53,3.45.89.13.53-3.44Z"/><path class="cls-1" d="M213,234.82l1.61.26c.6.07,1.24.33,1.13,1a.81.81,0,0,1-.57.63.88.88,0,0,1,.49.9c-.11.83-.79,1-1.5.86l-1.68-.26Zm.68,1.49.71.12a.37.37,0,0,0,.41-.23v0a.33.33,0,0,0-.26-.37h0l-.71-.11Zm-.19,1.39.71.11c.3,0,.49,0,.56-.3s-.15-.45-.41-.48l-.71-.12Z"/><path class="cls-1" d="M219.13,237.85a1.51,1.51,0,1,1-3-.45l.29-2,.91.15-.3,2.09c-.08.45.07.72.48.75s.64-.15.71-.6l.3-2.09.9.15Z"/><path class="cls-1" d="M220,235.9l.94.15.86,2.29.34-2.1.82.11-.52,3.45-.9-.11-.9-2.36-.34,2.17-.82-.15Z"/><path class="cls-1" d="M224.57,236.58l.89.15.75,3.67-.93-.15-.12-.64-1.2-.19-.29.6-.94-.15Zm-.27,2.21.79.11-.19-1.28Z"/><path class="cls-1" d="M229.51,237.29l.75.11-1.84,3.41-.75-.11Z"/><path class="cls-1" d="M232.39,240.14c0,.41.19.56.57.63s.56,0,.6-.26-.45-.45-.9-.67-.94-.53-.87-1.16.94-.94,1.58-.83,1.31.56,1.2,1.31l-.9-.15c.07-.3-.23-.45-.49-.49s-.45,0-.49.23.45.37.94.6.94.52.86,1.16c-.15.86-.93,1.05-1.68.94s-1.43-.57-1.32-1.46Z"/><path class="cls-1" d="M235.28,238.23l2.77.41-.11.75-1.87-.3-.08.6,1.69.26-.11.71-1.69-.26-.11.67,1.91.26-.11.79-2.81-.45Z"/><path class="cls-1" d="M240.71,240.32a.62.62,0,0,0-.6-.63c-.56-.08-.86.37-1,.9a.88.88,0,0,0,.63,1.16.65.65,0,0,0,.79-.49v-.08l.9.16a1.49,1.49,0,0,1-1.72,1.19h-.08a1.82,1.82,0,0,1,.56-3.59,1.49,1.49,0,0,1,1.39,1.53Z"/><path class="cls-1" d="M244.91,240.51l-1-.19-.41,2.7-.9-.15.41-2.66-1-.15.11-.79,3,.45Z"/><path class="cls-1" d="M247,240a1.68,1.68,0,0,1,1.42,2.06,1.66,1.66,0,0,1-2,1.53A1.82,1.82,0,0,1,247,240Zm-.45,2.84c.56.08.86-.37,1-.89a.9.9,0,0,0-.64-1.17c-.56-.11-.86.38-1,.9A.88.88,0,0,0,246.56,242.79Z"/><path class="cls-1" d="M249.18,240.36l1.76.26c.6.08,1.16.45,1.05,1.16a.92.92,0,0,1-.68.79c.38.15.42.56.38.9,0,.15-.08.67,0,.79l-.9-.15a1.37,1.37,0,0,1,0-.57c0-.33,0-.71-.38-.78l-.67-.11-.19,1.23-.9-.15Zm.67,1.65.75.11a.33.33,0,0,0,.45-.26v-.08c0-.26-.15-.41-.41-.45l-.71-.11Z"/><path class="cls-1" d="M255.13,241.26l.9.15.75,3.67-.93-.15-.12-.64-1.19-.18-.3.6-.94-.15Zm-.26,2.17.79.11-.19-1.27Z"/><g class="cls-7"><g class="cls-7"><g class="cls-7"><path class="cls-8" d="M337.63,115.8a1.49,1.49,0,0,1,1.23,1.68l-5.8,36.42a1.53,1.53,0,0,1-1.69,1.23l-4.76-.75a1.53,1.53,0,0,1-1.23-1.68l5.8-36.45a1.5,1.5,0,0,1,1.69-1.24Z"/><path class="cls-8" d="M331.07,156.89a1.53,1.53,0,0,1,1.24,1.69l-5.88,37a1.5,1.5,0,0,1-1.69,1.24l-4.76-.75a1.53,1.53,0,0,1-1.23-1.69l5.88-37a1.53,1.53,0,0,1,1.68-1.24Z"/><path class="cls-8" d="M345.76,116.81a1.25,1.25,0,0,1,1.05,1.46l-1.61,10.19a1.26,1.26,0,0,1-1.47,1l-4.12-.68a1.25,1.25,0,0,1-1.05-1.46l1.61-10.19a1.26,1.26,0,0,1,1.47-1.05Z"/><path class="cls-8" d="M343.58,130.44a1.25,1.25,0,0,1,1.05,1.46L343,142.09a1.24,1.24,0,0,1-1.46,1l-4.12-.67a1.27,1.27,0,0,1-1.05-1.46L338,130.82a1.25,1.25,0,0,1,1.46-1Z"/><path class="cls-8" d="M341.37,144.15a1.25,1.25,0,0,1,1.05,1.47l-1.61,10.18a1.24,1.24,0,0,1-1.46,1l-4.12-.67a1.25,1.25,0,0,1-1.05-1.46l1.61-10.19a1.25,1.25,0,0,1,1.46-1.05Z"/><path class="cls-8" d="M339.2,157.79a1.25,1.25,0,0,1,1.05,1.46l-1.65,10.19a1.25,1.25,0,0,1-1.46,1.05l-4.12-.67a1.25,1.25,0,0,1-1-1.46l1.61-10.19a1.25,1.25,0,0,1,1.46-1Z"/><path class="cls-8" d="M337,171.46a1.26,1.26,0,0,1,1.05,1.47l-1.61,10.19a1.24,1.24,0,0,1-1.46,1l-4.13-.67a1.25,1.25,0,0,1-1.05-1.46l1.62-10.19a1.25,1.25,0,0,1,1.46-1.05Z"/><path class="cls-8" d="M334.86,185.14a1.24,1.24,0,0,1,1,1.46l-1.61,10.19a1.25,1.25,0,0,1-1.46,1.05l-4.12-.68a1.25,1.25,0,0,1-1-1.46l1.61-10.19a1.26,1.26,0,0,1,1.46-1Z"/><path class="cls-8" d="M354.37,118.46a1.53,1.53,0,0,1,1.24,1.68l-5.81,36.45a1.53,1.53,0,0,1-1.68,1.24l-4.76-.75a1.53,1.53,0,0,1-1.24-1.69L347.93,119a1.53,1.53,0,0,1,1.68-1.24Z"/><path class="cls-8" d="M347.82,159.59a1.53,1.53,0,0,1,1.23,1.69l-5.92,37a1.53,1.53,0,0,1-1.68,1.24l-4.76-.75a1.53,1.53,0,0,1-1.24-1.69l5.89-37A1.52,1.52,0,0,1,343,158.8Z"/><path class="cls-8" d="M366.1,120.33a1.51,1.51,0,0,1,1.23,1.68l-5.8,36.46a1.53,1.53,0,0,1-1.69,1.23l-7.6-1.23a1.53,1.53,0,0,1-1.24-1.69l5.81-36.41a1.47,1.47,0,0,1,1.68-1.2Z"/><path class="cls-8" d="M359.54,161.43a1.52,1.52,0,0,1,1.24,1.68l-5.88,37a1.53,1.53,0,0,1-1.69,1.23l-7.6-1.2a1.5,1.5,0,0,1-1.24-1.68l5.88-37a1.53,1.53,0,0,1,1.69-1.23Z"/></g></g></g><path class="cls-1" d="M235.58,39l1.42.26a2.64,2.64,0,0,1,.45.15,1,1,0,0,1,.41.68.86.86,0,0,1,0,.45,1.06,1.06,0,0,1-.45.78,1.16,1.16,0,0,1-.93.12l-.34-.08-.22,1.39-.94-.15Zm.67,1.72.19,0a.31.31,0,0,0,.3-.07.46.46,0,0,0,.15-.3c0-.3,0-.45-.3-.49l-.19,0Z"/><path class="cls-1" d="M238.35,39.41l1.46.26a2.64,2.64,0,0,1,.45.15c.11.08.23.15.26.26a.61.61,0,0,1,.12.34v.38a1,1,0,0,1-.27.56.69.69,0,0,1-.52.19.54.54,0,0,1,.41.3,1,1,0,0,1,0,.59l0,.3,0,.15v.34s0,0,0,.08,0,0,.08.07v0l-1-.19c0-.07,0-.11,0-.19v-.18a.4.4,0,0,1,0-.19c0-.08,0-.11,0-.15l0-.26c0-.08,0-.19,0-.26s0-.12,0-.15,0-.08-.08-.12-.07,0-.14,0l-.27,0-.26,1.46-.94-.15Zm.67,1.72.19,0a.29.29,0,0,0,.3-.07.46.46,0,0,0,.15-.3.5.5,0,0,0,0-.34.42.42,0,0,0-.3-.15l-.18,0Z"/><path class="cls-1" d="M241.24,39.93l2.17.34-.15.79-1.2-.23-.11.64,1.12.19-.11.75-1.12-.19-.12.71,1.24.23-.15.75-2.17-.38Z"/><path class="cls-1" d="M243.78,40.35l2.14.37-.11.75-1.2-.19-.12.6,1.13.19-.11.75-1.13-.19-.26,1.5-.94-.15Z"/><path class="cls-1" d="M246.22,40.76l2.17.37-.15.75L247,41.7l-.11.59,1.12.19-.11.75L246.82,43l-.11.72,1.23.22-.15.79-2.17-.38Z"/><path class="cls-1" d="M248.77,41.21l1.46.26a2.64,2.64,0,0,1,.45.15.92.92,0,0,1,.26.26.65.65,0,0,1,.11.34.71.71,0,0,1,0,.41,1,1,0,0,1-.26.56.58.58,0,0,1-.53.19.61.61,0,0,1,.42.3,1.12,1.12,0,0,1,0,.6l0,.3,0,.15a.21.21,0,0,1,0,.15v.19s0,0,0,.07,0,0,.07.08v0l-1-.15a.3.3,0,0,1,0-.18v-.19a.33.33,0,0,1,0-.19c0-.07,0-.11,0-.15l0-.26c0-.07,0-.19,0-.26s0-.11,0-.15,0-.08-.08-.11-.07,0-.15,0l-.26,0L249,45l-.94-.15Zm.67,1.68.19,0a.3.3,0,0,0,.3-.07.51.51,0,0,0,.15-.3.41.41,0,0,0,0-.34.46.46,0,0,0-.3-.15l-.19,0Z"/><path class="cls-1" d="M251.69,41.7l2.13.33-.11.79-1.24-.19-.07.6,1.12.19-.15.75L252.25,44l-.11.71,1.23.23-.11.75-2.21-.38Z"/><path class="cls-1" d="M254.2,42.11l1.08.19.23,2.32.37-2.21.9.15-.63,3.59-1-.15-.26-2.36-.37,2.25-.9-.15Z"/><path class="cls-1" d="M258.47,44a.86.86,0,0,0,0-.45c0-.07-.11-.15-.19-.15a.34.34,0,0,0-.19,0,.21.21,0,0,0-.11.19c0,.11-.07.26-.11.37a5.49,5.49,0,0,0-.11.6,4.16,4.16,0,0,0-.08.6,1.17,1.17,0,0,0,0,.37.53.53,0,0,0,.08.23.26.26,0,0,0,.15.07H258a1.14,1.14,0,0,0,.11-.11.65.65,0,0,0,.08-.26,1.59,1.59,0,0,0,.07-.41l.9.15,0,.26a2.34,2.34,0,0,1-.19.6.72.72,0,0,1-.33.34.78.78,0,0,1-.41.11,1.71,1.71,0,0,1-.45,0,1.94,1.94,0,0,1-.64-.22.9.9,0,0,1-.34-.38,1.81,1.81,0,0,1-.11-.6,7.49,7.49,0,0,1,.07-.86,3.4,3.4,0,0,1,.23-.86,4.32,4.32,0,0,1,.3-.56,1,1,0,0,1,.45-.27,2.29,2.29,0,0,1,.64,0,1.36,1.36,0,0,1,.52.19,3,3,0,0,1,.34.3,1.52,1.52,0,0,1,.15.41,1.35,1.35,0,0,1,0,.49l0,.23-.9-.15Z"/><path class="cls-1" d="M259.92,43.09l-.62,3.62,1,.17.62-3.62Z"/><path class="cls-1" d="M263.3,47.39l-1-.15V46.6l-.75-.11-.19.64-1-.15,1.5-3.49,1.2.19Zm-1.5-1.65.53.08V44.24Z"/><path class="cls-1" d="M266.22,44.09l.79.12-1.8,3.55-.75-.11Z"/><path class="cls-1" d="M269.63,45.82v-.08a.39.39,0,0,0,0-.3.25.25,0,0,0-.18-.15.18.18,0,0,0-.23.08.39.39,0,0,0,0,.52,1.61,1.61,0,0,0,.27.23l.33.22a2.56,2.56,0,0,1,.34.26.78.78,0,0,1,.22.38,1.33,1.33,0,0,1,0,.56,1,1,0,0,1-.49.79,1.58,1.58,0,0,1-1,.11,3.75,3.75,0,0,1-.52-.15.55.55,0,0,1-.34-.23,1.86,1.86,0,0,1-.19-.33,1.35,1.35,0,0,1,0-.49l0-.11.9.15v.07a.35.35,0,0,0,0,.34.21.21,0,0,0,.19.11.25.25,0,0,0,.26-.07.35.35,0,0,0,.11-.23.3.3,0,0,0-.07-.3A2.13,2.13,0,0,0,269,47l-.33-.23a1.62,1.62,0,0,1-.34-.26.8.8,0,0,1-.23-.37,1.4,1.4,0,0,1,0-.53,1.06,1.06,0,0,1,.45-.78,1.54,1.54,0,0,1,1.79.29,1.24,1.24,0,0,1,.15.9Z"/><path class="cls-1" d="M271.13,45l2.14.38-.12.75-1.2-.19-.11.6,1.13.19-.12.74-1.12-.18-.15.71,1.27.22-.15.79-2.17-.37Z"/><path class="cls-1" d="M275,46.75a.86.86,0,0,0,0-.45.25.25,0,0,0-.18-.15.31.31,0,0,0-.19,0,.21.21,0,0,0-.12.19c0,.11-.07.26-.11.37s-.07.38-.11.6a4,4,0,0,0-.07.6,1.21,1.21,0,0,0,0,.38.47.47,0,0,0,.07.22.28.28,0,0,0,.15.08.21.21,0,0,0,.15,0,.65.65,0,0,0,.11-.15.7.7,0,0,0,.08-.26,1.37,1.37,0,0,0,.07-.42l.9.15,0,.27a1.61,1.61,0,0,1-.22.6.72.72,0,0,1-.34.33.71.71,0,0,1-.41.12,1.71,1.71,0,0,1-.45,0,1.82,1.82,0,0,1-.64-.23.75.75,0,0,1-.33-.37,1.61,1.61,0,0,1-.12-.6,5.71,5.71,0,0,1,.08-.86,3.39,3.39,0,0,1,.22-.86,5.21,5.21,0,0,1,.3-.57,1,1,0,0,1,.45-.26,1.72,1.72,0,0,1,.64,0,1.3,1.3,0,0,1,.52.19,1.88,1.88,0,0,1,.34.3,1,1,0,0,1,.15.37v.49l0,.23-.89-.15Z"/><path class="cls-1" d="M276.75,46.75l-.71-.11.15-.79,2.32.38-.11.82-.71-.11-.49,2.81-.94-.15Z"/><path class="cls-1" d="M278.32,48.06a3.92,3.92,0,0,1,.23-.86,4.41,4.41,0,0,1,.3-.56.8.8,0,0,1,.45-.26,1.67,1.67,0,0,1,1.2.22.92.92,0,0,1,.33.42,1.61,1.61,0,0,1,.12.63,5.71,5.71,0,0,1-.08.86,4,4,0,0,1-.22.87,2.94,2.94,0,0,1-.3.52.74.74,0,0,1-.45.26,1.66,1.66,0,0,1-1.2-.22.9.9,0,0,1-.34-.38,1.81,1.81,0,0,1-.11-.63C278.25,48.66,278.29,48.36,278.32,48.06Zm1,.19a4.16,4.16,0,0,0-.08.6v.38a.49.49,0,0,0,.08.22.25.25,0,0,0,.15.08.34.34,0,0,0,.19,0,.21.21,0,0,0,.11-.19c0-.11.07-.26.11-.37s.07-.38.11-.6a4.16,4.16,0,0,0,.08-.6,1.58,1.58,0,0,0,0-.38.47.47,0,0,0-.07-.22.28.28,0,0,0-.15-.08.34.34,0,0,0-.19,0,.21.21,0,0,0-.11.19c0,.11-.08.26-.11.37S279.37,48,279.3,48.25Z"/><path class="cls-1" d="M281.58,46.75,283,47a1.59,1.59,0,0,1,.45.15.53.53,0,0,1,.27.26.62.62,0,0,1,.11.33v.38a1,1,0,0,1-.26.56.58.58,0,0,1-.53.19.53.53,0,0,1,.41.34,1.11,1.11,0,0,1,0,.63l0,.3,0,.15a.21.21,0,0,1,0,.15s0,.08,0,.11v.08l0,.07s0,0,.07.08v0l-1-.15c0-.08,0-.12,0-.19v-.19l0-.19c0-.07,0-.11,0-.15l0-.22c0-.08,0-.19,0-.26s0-.11,0-.15,0-.08-.08-.11-.07,0-.15,0l-.26,0-.26,1.46-.94-.15Zm.68,1.69.19,0a.38.38,0,0,0,.33-.08.44.44,0,0,0,.15-.3.35.35,0,0,0,0-.34.46.46,0,0,0-.29-.15l-.19,0Z"/><path class="cls-1" d="M285.82,47.5l1.42.26a1.11,1.11,0,0,1,.71.38.77.77,0,0,1,.11.71.5.5,0,0,1-.07.26,1,1,0,0,1-.15.23.64.64,0,0,1-.45.22,1.4,1.4,0,0,1,.3.15,1.28,1.28,0,0,1,.19.23.77.77,0,0,1,.07.26v.3c0,.15-.07.3-.11.41a.89.89,0,0,1-.64.49,1.14,1.14,0,0,1-.52,0l-1.43-.23Zm.45,3.07.26,0a.38.38,0,0,0,.26-.07.51.51,0,0,0,.15-.34.51.51,0,0,0,0-.34.26.26,0,0,0-.22-.15l-.26,0Zm.26-1.49.22,0A.26.26,0,0,0,287,49a.35.35,0,0,0,.11-.23c0-.07,0-.18,0-.26s-.11-.15-.19-.15l-.22,0Z"/><g class="cls-7"><g class="cls-7"><g class="cls-7"><path class="cls-8" d="M322.75,93a1.25,1.25,0,0,1-1.46,1L311.1,92.42A1.25,1.25,0,0,1,310.05,91l.68-4.12a1.29,1.29,0,0,1,1.46-1l10.19,1.61a1.25,1.25,0,0,1,1.05,1.46Z"/><path class="cls-8" d="M309.08,90.81a1.25,1.25,0,0,1-1.46,1l-10.19-1.61a1.26,1.26,0,0,1-1.05-1.46l.67-4.13a1.25,1.25,0,0,1,1.47-1l10.19,1.61a1.25,1.25,0,0,1,1.05,1.46Z"/><path class="cls-8" d="M295.41,88.64a1.24,1.24,0,0,1-1.46,1l-10.19-1.61a1.24,1.24,0,0,1-1.05-1.46l.67-4.12a1.25,1.25,0,0,1,1.46-1L295,83.05a1.26,1.26,0,0,1,1.05,1.46Z"/><path class="cls-8" d="M281.73,86.46a1.25,1.25,0,0,1-1.46,1.05L270.08,85.9A1.25,1.25,0,0,1,269,84.44l.68-4.12a1.25,1.25,0,0,1,1.46-1l10.19,1.61a1.25,1.25,0,0,1,1.05,1.46Z"/><path class="cls-8" d="M268.06,84.25a1.25,1.25,0,0,1-1.46,1l-10.19-1.61a1.25,1.25,0,0,1-1.05-1.46l.67-4.12a1.26,1.26,0,0,1,1.46-1l10.19,1.61a1.24,1.24,0,0,1,1.05,1.46Z"/><path class="cls-8" d="M254.38,82.08a1.25,1.25,0,0,1-1.46,1l-10.19-1.61a1.25,1.25,0,0,1-1-1.46l.68-4.12a1.24,1.24,0,0,1,1.46-1L254,76.54A1.25,1.25,0,0,1,255.06,78Z"/><path class="cls-8" d="M240.71,79.91a1.25,1.25,0,0,1-1.46,1l-10.19-1.61A1.26,1.26,0,0,1,228,77.88l.68-4.12a1.25,1.25,0,0,1,1.46-1.05l10.19,1.62a1.23,1.23,0,0,1,1,1.46Z"/><path class="cls-8" d="M227,77.73a1.24,1.24,0,0,1-1.46,1l-10.19-1.61a1.25,1.25,0,0,1-1-1.46l.67-4.12a1.25,1.25,0,0,1,1.46-1l10.19,1.61a1.25,1.25,0,0,1,1.05,1.46Z"/><path class="cls-8" d="M213.36,75.56a1.25,1.25,0,0,1-1.46,1L201.71,75a1.25,1.25,0,0,1-1.05-1.46l.68-4.12a1.25,1.25,0,0,1,1.46-1L213,70a1.27,1.27,0,0,1,1,1.46Z"/><path class="cls-8" d="M199.69,73.35a1.25,1.25,0,0,1-1.46,1.05L188,72.79a1.25,1.25,0,0,1-1-1.46l.67-4.12a1.26,1.26,0,0,1,1.46-1l10.2,1.61a1.24,1.24,0,0,1,1,1.46Z"/><path class="cls-9" d="M190.66,40.91a2.29,2.29,0,0,1,2.59-1.84l132.2,21.09a2.22,2.22,0,1,1-.71,4.39L192.53,43.46A2.25,2.25,0,0,1,190.66,40.91Z"/><path class="cls-8" d="M320.81,101.86c-.12.82-.57,1.42-.94,1.35l-31.62-5.06c-.41-.07-.64-.75-.49-1.57l.75-4.76c.12-.82.57-1.42.94-1.35l31.62,5.06c.41.07.6.79.49,1.57Z"/><path class="cls-8" d="M287.13,96.5c-.11.83-.56,1.43-.94,1.35l-31.62-5c-.41-.07-.6-.79-.48-1.57l.75-4.76c.11-.79.56-1.42.93-1.35l31.62,5c.41.08.6.79.49,1.57Z"/><path class="cls-8" d="M252.74,91c-.12.83-.56,1.43-.94,1.35l-31.62-5.06c-.41-.07-.64-.78-.48-1.57l.74-4.76c.12-.82.57-1.42.94-1.35l31.62,5c.41.08.6.75.49,1.58Z"/><path class="cls-8" d="M218.83,85.6c-.11.82-.56,1.42-.93,1.35l-31.62-5c-.41-.08-.6-.79-.49-1.57l.75-4.76c.11-.79.56-1.43.94-1.35l31.62,5c.41.07.6.79.48,1.57Z"/><path class="cls-8" d="M323.62,84.4c-.12.83-.57,1.43-.94,1.35l-31.62-5c-.41-.07-.64-.75-.49-1.57l.75-4.76c.12-.82.57-1.42.94-1.35l31.62,5c.41.08.6.79.48,1.57Z"/><path class="cls-8" d="M289.9,79.05c-.11.82-.56,1.42-.94,1.34l-31.61-5c-.42-.08-.61-.75-.49-1.58l.75-4.75c.11-.83.56-1.43.93-1.35l31.62,5c.41.07.6.75.49,1.57Z"/><path class="cls-8" d="M255.51,73.58c-.11.82-.56,1.42-.94,1.34L223,69.9c-.41-.07-.6-.78-.48-1.57l.75-4.76c.11-.78.56-1.42.93-1.35l31.62,5c.41.08.6.79.49,1.58Z"/><path class="cls-8" d="M221.6,68.14c-.11.83-.56,1.43-.93,1.35l-31.62-5c-.41-.07-.6-.78-.49-1.57l.75-4.76c.12-.82.56-1.42.94-1.35l31.62,5.06c.41.07.6.75.48,1.57Z"/><path class="cls-8" d="M325.38,74.4c-.15,1-.6,1.76-1,1.72l-31.61-5c-.42-.07-.6-.93-.45-1.95l1-5.91c.15-1,.6-1.77,1-1.73l31.58,5.06c.42.07.6.94.45,2Z"/><path class="cls-8" d="M291.51,69c-.15,1-.6,1.76-1,1.72l-31.62-5c-.41-.07-.6-.94-.45-2l.94-5.92c.15-1,.6-1.76,1-1.72l31.62,5c.41.08.6.94.45,1.95Z"/><path class="cls-8" d="M257.31,63.54c-.15,1-.6,1.76-1,1.72l-31.62-5c-.42-.08-.6-.94-.45-2l.93-5.92c.15-1,.6-1.76,1-1.68l31.61,5c.42.07.6.93.42,1.94Z"/><path class="cls-8" d="M223.22,58.1c-.15,1-.6,1.77-1,1.73l-31.62-5c-.42-.08-.6-.94-.45-2l.93-5.92c.15-1,.6-1.76,1-1.72l31.61,5c.42.07.6.93.45,1.95Z"/></g></g></g><g class="cls-7"><g class="cls-7"><g class="cls-7"><path class="cls-8" d="M302.56,219.57a1.27,1.27,0,0,1-1.46,1.08L290.91,219a1.25,1.25,0,0,1-1.05-1.46l.68-4.12a1.27,1.27,0,0,1,1.46-1.05L302.19,214a1.26,1.26,0,0,1,1.05,1.47Z"/><path class="cls-8" d="M288.89,217.4a1.25,1.25,0,0,1-1.46,1l-10.19-1.62a1.24,1.24,0,0,1-1.05-1.46l.67-4.12a1.26,1.26,0,0,1,1.46-1.05l10.19,1.61a1.25,1.25,0,0,1,1.05,1.46Z"/><path class="cls-8" d="M275.21,215.22a1.25,1.25,0,0,1-1.46,1.05l-10.19-1.61a1.25,1.25,0,0,1-1.05-1.46l.68-4.12a1.25,1.25,0,0,1,1.46-1.05l10.19,1.61a1.25,1.25,0,0,1,1.05,1.46Z"/><path class="cls-8" d="M261.54,213.05a1.27,1.27,0,0,1-1.46,1l-10.19-1.61a1.25,1.25,0,0,1-1-1.46l.67-4.12a1.25,1.25,0,0,1,1.47-1l10.19,1.61a1.24,1.24,0,0,1,1,1.46Z"/><path class="cls-8" d="M247.87,210.84a1.26,1.26,0,0,1-1.47,1l-10.18-1.61a1.24,1.24,0,0,1-1.05-1.46l.67-4.12a1.24,1.24,0,0,1,1.46-1l10.19,1.61a1.25,1.25,0,0,1,1,1.46Z"/><path class="cls-8" d="M234.19,208.67a1.24,1.24,0,0,1-1.46,1l-10.19-1.61a1.25,1.25,0,0,1-1-1.46l.68-4.12a1.25,1.25,0,0,1,1.46-1.05l10.19,1.61a1.3,1.3,0,0,1,1.08,1.46Z"/><path class="cls-8" d="M220.52,206.49a1.24,1.24,0,0,1-1.46,1l-10.19-1.61a1.25,1.25,0,0,1-1.05-1.46l.67-4.12a1.26,1.26,0,0,1,1.46-1l10.19,1.61a1.24,1.24,0,0,1,1.05,1.46Z"/><path class="cls-8" d="M206.85,204.32a1.26,1.26,0,0,1-1.47,1.05l-10.19-1.61a1.24,1.24,0,0,1-1-1.46l.63-4.12a1.24,1.24,0,0,1,1.46-1.05l10.19,1.61a1.26,1.26,0,0,1,1.09,1.42v0Z"/><path class="cls-8" d="M265.06,222.64c-.11.82-.67,1.39-1.2,1.31l-15.43-2.47c-.53-.08-.86-.83-.75-1.61l.75-4.76c.11-.82.67-1.39,1.2-1.31l15.43,2.47c.53.08.86.83.75,1.61Z"/><path class="cls-8" d="M246.48,219.68a1.53,1.53,0,0,1-1.69,1.24l-23.22-3.71a1.53,1.53,0,0,1-1.24-1.69l.75-4.76a1.53,1.53,0,0,1,1.69-1.23L246,213.24a1.53,1.53,0,0,1,1.23,1.68Z"/><path class="cls-8" d="M266,232.19c-.11.83-.56,1.43-.94,1.35l-31.62-5c-.41-.07-.63-.75-.48-1.57l.75-4.76c.11-.82.56-1.42.93-1.35l31.62,5.06c.41.07.6.75.49,1.57Z"/><path class="cls-8" d="M300.35,237.66c-.11.83-.56,1.43-.93,1.35L267.8,234c-.41-.07-.64-.75-.49-1.57l.75-4.76c.11-.82.56-1.42.94-1.35l31.61,5.06c.42.08.6.79.49,1.57Z"/><path class="cls-8" d="M244.35,236.2a1.63,1.63,0,0,1-1.92,1.28L216,233.28a1.65,1.65,0,0,1-1.43-1.84l.34-2.13a1.61,1.61,0,0,1,1.91-1.28l26.45,4.2a1.64,1.64,0,0,1,1.42,1.84Z"/><path class="cls-8" d="M193.17,202.15a1.25,1.25,0,0,1-1.46,1l-10.19-1.61a1.26,1.26,0,0,1-1.05-1.47l.68-4.12a1.23,1.23,0,0,1,1.46-1l10.19,1.61a1.25,1.25,0,0,1,1,1.46Z"/><path class="cls-8" d="M179.5,200a1.24,1.24,0,0,1-1.46,1l-10.19-1.61a1.24,1.24,0,0,1-1-1.46l.67-4.12a1.25,1.25,0,0,1,1.46-1.05l10.19,1.61a1.26,1.26,0,0,1,1,1.46Z"/><path class="cls-8" d="M301.62,228.63c-.11.83-.67,1.39-1.19,1.32L285,227.47c-.52-.07-.86-.82-.75-1.61l.75-4.76c.11-.82.68-1.38,1.2-1.31l15.43,2.47c.53.08.87.83.75,1.62Z"/><path class="cls-8" d="M283.46,225.56c-.12.83-.68,1.39-1.2,1.31l-15.44-2.47c-.52-.08-.86-.82-.75-1.61l.75-4.76c.11-.82.68-1.38,1.2-1.31l15.44,2.47c.52.08.86.83.74,1.61Z"/><path class="cls-8" d="M231.2,226.65c-.12.82-.57,1.42-.94,1.35l-31.62-5.06c-.41-.07-.64-.75-.49-1.57l.75-4.76c.11-.82.56-1.43.94-1.35l31.62,5.06c.41.07.64.75.49,1.57Z"/><path class="cls-8" d="M197.52,221.29c-.12.83-.56,1.42-.94,1.35L165,217.58c-.41-.07-.6-.75-.48-1.57l.74-4.76c.12-.82.57-1.42.94-1.35L197.78,215c.41.08.6.75.49,1.57Z"/><path class="cls-8" d="M303.5,211.59c-.11.82-.56,1.42-.94,1.35l-31.62-5.06c-.41-.08-.6-.75-.48-1.57l.75-4.76c.11-.83.56-1.43.93-1.35l31.66,5c.41.07.6.75.49,1.57Z"/><path class="cls-8" d="M269.37,206.12c-.11.82-.56,1.42-.94,1.35l-31.61-5.06c-.42-.07-.6-.75-.49-1.57l.75-4.76c.11-.83.56-1.43.93-1.35l31.62,5.06c.41.07.6.78.49,1.57Z"/><path class="cls-8" d="M235.43,200.72c-.11.83-.56,1.43-.94,1.35l-31.62-5c-.41-.07-.6-.78-.48-1.57l.75-4.76c.11-.79.56-1.42.93-1.35l31.62,5.06c.41.08.6.79.49,1.57Z"/><path class="cls-8" d="M201.49,195.33c-.11.82-.56,1.42-.94,1.35l-31.62-5.06c-.41-.07-.6-.75-.48-1.57l.74-4.76c.12-.83.57-1.42.94-1.35L201.75,189c.41.07.6.75.49,1.57Z"/><path class="cls-8" d="M183.13,209.49c-.11.83-.67,1.39-1.2,1.31l-15.43-2.47c-.53-.08-.86-.82-.75-1.61l.75-4.76c.11-.82.67-1.39,1.2-1.31l15.47,2.47c.52.08.86.83.75,1.61Z"/><path class="cls-8" d="M219.69,215.49c-.11.82-.67,1.38-1.19,1.31l-15.44-2.48c-.52-.07-.86-.82-.75-1.61l.75-4.75c.11-.83.68-1.39,1.2-1.32l15.43,2.48c.53.07.87.82.75,1.61Z"/><path class="cls-8" d="M201.52,212.41c-.11.83-.67,1.39-1.19,1.31l-15.44-2.43c-.52-.08-.86-.83-.75-1.61l.75-4.76c.11-.82.68-1.39,1.2-1.31L201.52,206c.53.08.87.83.75,1.61Z"/></g></g></g><g class="cls-7"><g class="cls-7"><g class="cls-7"><path class="cls-8" d="M149.08,154.79a1.25,1.25,0,0,1-1.05-1.46l1.61-10.19a1.24,1.24,0,0,1,1.46-1l4.12.67a1.25,1.25,0,0,1,1.05,1.46l-1.61,10.19a1.31,1.31,0,0,1-1.46,1.09Z"/><path class="cls-8" d="M153.42,127.45a1.26,1.26,0,0,1-1-1.46L154,115.8a1.24,1.24,0,0,1,1.46-1l4.12.67a1.25,1.25,0,0,1,1.05,1.46L159,127.07a1.27,1.27,0,0,1-1.47,1.05Z"/><path class="cls-8" d="M155,169.48a1.51,1.51,0,0,1-1.24-1.69l5.77-36.41a1.52,1.52,0,0,1,1.68-1.23l4.76.74a1.53,1.53,0,0,1,1.24,1.69L161.44,169a1.53,1.53,0,0,1-1.69,1.24Z"/><path class="cls-8" d="M161.55,128.35a1.53,1.53,0,0,1-1.23-1.69l5.88-37a1.53,1.53,0,0,1,1.68-1.24l4.76.75a1.53,1.53,0,0,1,1.24,1.69l-5.88,37a1.53,1.53,0,0,1-1.69,1.24Z"/><path class="cls-8" d="M146.87,168.47a1.24,1.24,0,0,1-1.05-1.46l1.61-10.19a1.25,1.25,0,0,1,1.46-1l4.12.67a1.26,1.26,0,0,1,1.05,1.46l-1.65,10.19a1.24,1.24,0,0,1-1.46,1Z"/><path class="cls-8" d="M151.25,141.12a1.25,1.25,0,0,1-1.05-1.46l1.61-10.19a1.26,1.26,0,0,1,1.46-1.05l4.12.68a1.3,1.3,0,0,1,1.09,1.46l-1.61,10.19a1.27,1.27,0,0,1-1.46,1.05Z"/><path class="cls-8" d="M155.6,113.77a1.25,1.25,0,0,1-1-1.46l1.61-10.19a1.25,1.25,0,0,1,1.46-1.05l4.12.68a1.25,1.25,0,0,1,1,1.46l-1.61,10.19a1.27,1.27,0,0,1-1.46,1Z"/><path class="cls-8" d="M157.77,100.1a1.25,1.25,0,0,1-1.05-1.46l1.61-10.19a1.25,1.25,0,0,1,1.46-1l4.12.67A1.28,1.28,0,0,1,165,89.54l-1.61,10.19a1.24,1.24,0,0,1-1.46,1Z"/><path class="cls-8" d="M138.25,166.82a1.53,1.53,0,0,1-1.24-1.69l3.9-24.5a1.53,1.53,0,0,1,1.69-1.23l4.75.75a1.5,1.5,0,0,1,1.24,1.68l-3.86,24.5a1.53,1.53,0,0,1-1.68,1.24Z"/><path class="cls-8" d="M144.81,125.69a1.53,1.53,0,0,1-1.24-1.69l5.92-37a1.47,1.47,0,0,1,1.69-1.2l4.75.75a1.51,1.51,0,0,1,1.24,1.68l-5.88,37a1.53,1.53,0,0,1-1.69,1.23Z"/><path class="cls-8" d="M142.78,138.42a1.52,1.52,0,0,1-1.23-1.68l1.23-7.76a1.53,1.53,0,0,1,1.69-1.23l4.76.75a1.5,1.5,0,0,1,1.23,1.68l-1.23,7.76a1.53,1.53,0,0,1-1.69,1.23Z"/><path class="cls-8" d="M126.53,165a1.49,1.49,0,0,1-1.24-1.69l4.53-28.36a1.49,1.49,0,0,1,1.69-1.23l7.6,1.2a1.52,1.52,0,0,1,1.24,1.68l-4.53,28.36a1.53,1.53,0,0,1-1.69,1.24Z"/><path class="cls-8" d="M133.08,123.81a1.48,1.48,0,0,1-1.23-1.68l5.88-37a1.48,1.48,0,0,1,1.72-1.19l7.6,1.19a1.53,1.53,0,0,1,1.24,1.69l-5.88,37a1.51,1.51,0,0,1-1.69,1.24Z"/><path class="cls-8" d="M132.41,125.54l8.43,1.35a1.08,1.08,0,0,1,.9,1.2l-.75,4.79a1.12,1.12,0,0,1-1.2.9l-8.43-1.35a1.11,1.11,0,0,1-.9-1.2l.75-4.79A1,1,0,0,1,132.41,125.54Z"/></g></g></g><path class="cls-10" d="M316.05,109.61a6.43,6.43,0,0,1,5.54,7.12L309.3,192.18a6.36,6.36,0,0,1-7.49,5l-127-20.67a6.43,6.43,0,0,1-5.55-7.12l12.29-75.45a6.37,6.37,0,0,1,7.49-5Z"/><path class="cls-11" d="M200.18,87.8l-14.93,91.66,8,1.3L208.16,89.1Z"/><path class="cls-11" d="M215.26,90.25l-14.92,91.67,8,1.3,14.93-91.67Z"/><path class="cls-11" d="M230.36,92.75l-14.91,91.63,8,1.3,14.92-91.63Z"/><path class="cls-11" d="M245.48,95.18l-14.92,91.67,8,1.3,14.92-91.66Z"/><path class="cls-11" d="M260.55,97.68,245.63,189.3l8,1.3L268.54,99Z"/><path class="cls-11" d="M275.67,100.1l-14.92,91.66,8,1.3,14.93-91.66Z"/><path class="cls-11" d="M290.76,102.56l-14.92,91.63,8,1.3,14.92-91.63Z"/><path class="cls-12" d="M200.25,180.16l7-43.31c-2-4.08-3.78-8.13-5.31-12.14L193.13,179Zm15.1,2.47,4.27-26.26a44.84,44.84,0,0,1-6-7.83v0l-5.35,33Zm15.1,2.44,3-18.14a69.92,69.92,0,0,1-6.6-4.31l-3.44,21.32Zm15.09,2.47,2.21-13.68c-2.32-.93-4.6-1.91-6.81-3l-2.51,15.48Zm15.1,2.43,1.8-11c-2.32-.71-4.65-1.46-6.93-2.25l-2,12.1Zm15.1,2.48,1.53-9.41c-2.32-.6-4.68-1.2-7-1.83l-1.65,10.07Zm33.27-.83.18-1.2c-7.57-1.8-15.73-3.56-24-5.51l-1.42,8.81,17.75,2.88A6.35,6.35,0,0,0,309,191.62Z"/><path class="cls-12" d="M185.15,177.72,196.65,107c-1.27-5.92-1.87-10.75-.67-17l-7.3-1.53a7,7,0,0,0-4.8.94,5.91,5.91,0,0,0-2.73,4l-12.22,75.41a6.07,6.07,0,0,0,2.44,5.81,7.13,7.13,0,0,0,3.07,1.31Z"/><path class="cls-13" d="M193.13,179,202,124.71A118,118,0,0,1,196.65,107l-11.5,70.69Z"/><path class="cls-13" d="M208.23,181.47l5.36-33c-2.32-3.89-4.42-7.75-6.3-11.61l-7,43.31Z"/><path class="cls-13" d="M223.33,183.9l3.44-21.31a57.7,57.7,0,0,1-7.19-6.26l-4.27,26.26Z"/><path class="cls-13" d="M238.43,186.38l2.51-15.48c-2.63-1.23-5.14-2.58-7.57-4l-3,18.14Z"/><path class="cls-13" d="M255.51,176.71c-2.62-.9-5.21-1.87-7.76-2.85l-2.21,13.68,8,1.31Z"/><path class="cls-13" d="M268.62,191.28l1.65-10.07c-2.62-.72-5.25-1.47-7.83-2.25l-1.8,11Z"/><path class="cls-13" d="M283.72,193.76l1.42-8.81c-2.62-.6-5.24-1.23-7.87-1.91l-1.53,9.41Z"/><path class="cls-14" d="M179.5,168.09l11.39-70L310.5,117.56l-11.39,70Zm11.65-69.64-11.32,69.38,119,19.37,11.32-69.38Z"/><path class="cls-14" d="M250.48,108.18l-3.79,23.26.3.05,3.78-23.26Z"/><path class="cls-14" d="M243,154.17l-3.84,23.62.29.05,3.85-23.62Z"/><path class="cls-14" d="M232.77,140.82c1-6.37,7.38-10.64,14.12-9.52s11.43,7.16,10.38,13.53-7.38,10.64-14.12,9.51S231.72,147.19,232.77,140.82Zm24.16,3.93c1-6.18-3.52-12.1-10.11-13.15s-12.74,3.08-13.75,9.3S236.59,153,243.18,154,256,150.93,256.93,144.75Z"/><path class="cls-14" d="M182.61,149.06l5.17-31.84,13.63,2.21-5.17,31.84ZM188,117.59l-5.1,31.21,13,2.13,5.1-31.2Z"/><path class="cls-14" d="M288.59,166.29l5.17-31.84,13.63,2.21-5.16,31.85ZM294,134.83,288.93,166l13,2.14,5.1-31.21Z"/><path class="cls-14" d="M184,140.48,186.35,126l4.39.71-2.36,14.54Zm2.63-14.2-2.25,13.94,3.74.6,2.25-13.94Z"/><path class="cls-14" d="M299.27,159.25l2.36-14.53,4.38.71L303.65,160Zm2.62-14.2L299.64,159l3.75.6,2.24-13.94Z"/><path class="cls-14" d="M182.16,135.8l.93-5.81,2.74.45-.94,5.81Zm1.2-5.47-.87,5.21,2.14.34.86-5.21Z"/><path class="cls-14" d="M304.17,155.65l.94-5.8,2.73.45-.93,5.8Zm1.2-5.46-.82,5.2,2.13.34.86-5.21Z"/><path class="cls-14" d="M199.62,129.17l.18-.23a7.57,7.57,0,0,1,2.62,7,7.33,7.33,0,0,1-4.72,5.88l-.11-.3a7.16,7.16,0,0,0,4.5-5.65A7.27,7.27,0,0,0,199.62,129.17Z"/><path class="cls-14" d="M287.65,149.74a7.53,7.53,0,0,1,4.68-5.77l.12.3a7.24,7.24,0,0,0-4.5,5.5,7,7,0,0,0,2.44,6.78l-.19.23A7.3,7.3,0,0,1,287.65,149.74Z"/><path class="cls-15" d="M196.35,134.45a.52.52,0,0,1,.45.6.51.51,0,0,1-.63.41.5.5,0,0,1-.45-.56.5.5,0,0,1,.56-.45S196.32,134.41,196.35,134.45Z"/><path class="cls-15" d="M293.83,150.3a.52.52,0,0,1,.45.6.5.5,0,0,1-.63.41.52.52,0,0,1-.45-.6A.57.57,0,0,1,293.83,150.3Z"/><path class="cls-14" d="M248.17,142.24l.52-3.29L245,142.47l-.11.71-.08.53a2,2,0,0,0-2.13,1.91,2.07,2.07,0,0,0,1.46,2.06l-.08.45.45.07.08-.45a1.94,1.94,0,0,0,1.27-.37l-.26-.34a1.62,1.62,0,0,1-.94.3l.3-1.76,2.14.33.07-.44-2.13-.34.15-.9a1.64,1.64,0,0,1,.78.56l.34-.26a1.87,1.87,0,0,0-1.05-.75l.19-1.12,2.62-2.51-.34,2Zm-5,3.19a1.54,1.54,0,0,1,1.61-1.31l-.49,3.07A1.54,1.54,0,0,1,243.15,145.43Z"/><path class="cls-14" d="M243.93,150.22c.15-.07.19-.18.23-.37s-.3-.38-.26-.56.3-.27.33-.27-.07,0-.11.23.34.22.26.56S243.93,150.26,243.93,150.22Zm.6-1.23h0a.85.85,0,0,1,.08-.34s-.12.15-.23.11-.15-.07-.11-.15-.07.08-.11.08a.28.28,0,0,1-.19-.08.28.28,0,0,1,0,.19c0,.07-.11.15-.15.15a.8.8,0,0,0-.49.64.76.76,0,1,0,1.5.22A1.13,1.13,0,0,0,244.53,149Z"/><path class="cls-14" d="M248,136.89a1.86,1.86,0,0,0-1.65-2,1.89,1.89,0,0,0-2,1.43l-1.87-.3-1.76,10.86a5.18,5.18,0,0,0,3,4.46,5.17,5.17,0,0,0,4.31-3.26v0l1.76-10.82Zm-1.91,1.2.07-.57a2,2,0,0,1,.75.34A1.51,1.51,0,0,1,246.11,138.09Zm.67-.6a2.19,2.19,0,0,0-.71-.23,2.12,2.12,0,0,0-.71,0,1,1,0,0,1-.08-.6l1.76.3A1,1,0,0,1,246.78,137.49Zm-.82,0-.08.56a1.31,1.31,0,0,1-.75-.49A1.51,1.51,0,0,1,246,137.49Zm1.64-.57a1.17,1.17,0,0,1-.48.83l-.15-.15a1.72,1.72,0,0,0,.26-1.58.4.4,0,0,0,.19-.07A1.72,1.72,0,0,1,247.6,136.92Zm-1-1.61a1.44,1.44,0,0,1,.75.45,1.3,1.3,0,0,1-.82.08Zm.46.79a1.13,1.13,0,0,1,.07.6l-1.76-.3a1.11,1.11,0,0,1,.26-.56A2.12,2.12,0,0,0,247,136.1Zm-.72-.82-.07.56a1.58,1.58,0,0,1-.79-.38A1.36,1.36,0,0,1,246.29,135.28Zm-1,.33a.65.65,0,0,0,.15.12,1.68,1.68,0,0,0-.26,1.57,1.46,1.46,0,0,1-.19.07,1.68,1.68,0,0,1-.19-.93A1.42,1.42,0,0,1,245.28,135.61Zm2.29,3.19-.42.37L243,138.5l-.75,4.76,3.15-3-1.72-.3.07-.45,2.62.41-4.79,4.57,1-6.52Zm.11,9.18a3.29,3.29,0,1,1-6.48-1l.26-1.69,7.87-7.49Z"/><path class="cls-14" d="M349.8,240.77a.87.87,0,0,1-1.23,0l-1.17-1.16a.9.9,0,0,1,0-1.24l4-3.93a.88.88,0,0,1,1.24,0l1.16,1.16a.88.88,0,0,1,0,1.24Z"/><path class="cls-14" d="M121.5,204.28a.87.87,0,0,1-.37,1.16l-1.46.75a.87.87,0,0,1-1.16-.37l-2.47-5a.87.87,0,0,1,.37-1.16l1.46-.75a.87.87,0,0,1,1.16.37Z"/><path class="cls-16" d="M332.27,245.23l2,3.37a58.17,58.17,0,0,1-27.39,6.74l.6-3.78A59.65,59.65,0,0,0,332.27,245.23Z"/><path class="cls-14" d="M120.68,188.47h1.87a2,2,0,0,1,.68.12,1.25,1.25,0,0,1,.45.29,2,2,0,0,1,.26.42,1.47,1.47,0,0,1,0,1,1.49,1.49,0,0,1-.26.45.9.9,0,0,1-.45.3,2,2,0,0,1-.68.11h-1v1.5h-.9Zm.94,1.95h.71a.78.78,0,0,0,.3,0,.63.63,0,0,0,.26-.07.44.44,0,0,0,.19-.19,1,1,0,0,0,0-.64.41.41,0,0,0-.19-.18.5.5,0,0,0-.26-.08c-.11,0-.19,0-.3,0h-.71Z"/><path class="cls-14" d="M124.43,190.57a2.05,2.05,0,0,1,.15-.86A1.83,1.83,0,0,1,125,189a1.7,1.7,0,0,1,.64-.45,2.23,2.23,0,0,1,1.72,0,2,2,0,0,1,.64.45,2.79,2.79,0,0,1,.41.71,2.23,2.23,0,0,1,.15.86,2.36,2.36,0,0,1-.15.86,1.75,1.75,0,0,1-.41.68,3.09,3.09,0,0,1-.64.45,2.32,2.32,0,0,1-1.72,0,2.16,2.16,0,0,1-.64-.45,1.72,1.72,0,0,1-.41-.68A2.05,2.05,0,0,1,124.43,190.57Zm.9,0a2.41,2.41,0,0,0,.07.53,2.09,2.09,0,0,0,.19.44,1,1,0,0,0,.34.3,1.26,1.26,0,0,0,1,0,.77.77,0,0,0,.34-.3,1.2,1.2,0,0,0,.19-.44,2.13,2.13,0,0,0,.07-.53,1.24,1.24,0,0,0-.07-.52,1.53,1.53,0,0,0-.19-.45.85.85,0,0,0-.34-.34,1.26,1.26,0,0,0-1,0,.7.7,0,0,0-.34.34,2.16,2.16,0,0,0-.19.45A2,2,0,0,0,125.33,190.57Z"/><path class="cls-14" d="M129.15,188.47h2.25a2.43,2.43,0,0,1,.52.08,1.23,1.23,0,0,1,.37.26.77.77,0,0,1,.23.37,1,1,0,0,1,.07.45,1.17,1.17,0,0,1-.15.64.93.93,0,0,1-.52.41,1.4,1.4,0,0,1,.3.15,1.28,1.28,0,0,1,.19.23c0,.07.07.18.11.3a.86.86,0,0,1,0,.3v.48c0,.08,0,.19,0,.27a.31.31,0,0,0,.12.22h-.86a1.79,1.79,0,0,1-.08-.49c0-.18,0-.37,0-.52a.75.75,0,0,0-.19-.49.8.8,0,0,0-.48-.15h-.94v1.65h-.94Zm.93,1.88h1a.76.76,0,0,0,.48-.15.49.49,0,0,0,.15-.45.62.62,0,0,0-.15-.45.56.56,0,0,0-.48-.12h-1Z"/><path class="cls-14" d="M134.21,189.22H133v-.75h3.41v.75h-1.24v3.41h-.93Z"/><path class="cls-14" d="M136.68,190.57a2.05,2.05,0,0,1,.15-.86,1.83,1.83,0,0,1,.41-.71,1.7,1.7,0,0,1,.64-.45,2.25,2.25,0,0,1,.86-.19,1.7,1.7,0,0,1,.86.19,2,2,0,0,1,.64.45,2.79,2.79,0,0,1,.41.71,2.54,2.54,0,0,1,0,1.72,1.68,1.68,0,0,1-.41.68,3.09,3.09,0,0,1-.64.45,2.24,2.24,0,0,1-.86.18,1.69,1.69,0,0,1-.86-.18,1.74,1.74,0,0,1-.64-.45,1.72,1.72,0,0,1-.41-.68A3,3,0,0,1,136.68,190.57Zm.93,0a2.43,2.43,0,0,0,.08.53,2.09,2.09,0,0,0,.19.44,1.22,1.22,0,0,0,.33.31,1.36,1.36,0,0,0,1,0,.93.93,0,0,0,.34-.31,2.78,2.78,0,0,0,.19-.44,2.72,2.72,0,0,0,.07-.53,2.62,2.62,0,0,0-.07-.52,1.85,1.85,0,0,0-.19-.45,1,1,0,0,0-.34-.34,1.28,1.28,0,0,0-1,0,.72.72,0,0,0-.33.34,2.16,2.16,0,0,0-.19.45A1.1,1.1,0,0,0,137.61,190.57Zm1.28-2.47h-.56l.56-.83h.93Z"/><path class="cls-14" d="M141.43,188.47h.9l1.77,2.81v-2.81H145v4.16h-.9l-1.76-2.77v2.77h-.87Z"/><path class="cls-14" d="M123,195.52h.94l1.72,2.8h0v-2.8h.86v4.15h-.93l-1.73-2.77h0v2.77H123Z"/><path class="cls-14" d="M127.2,197.61a2.23,2.23,0,0,1,.15-.86,1.83,1.83,0,0,1,.41-.71,2.73,2.73,0,0,1,.64-.49,2.32,2.32,0,0,1,1.72,0,1.8,1.8,0,0,1,.64.49,2.17,2.17,0,0,1,.41.71,2.36,2.36,0,0,1,.15.86,2.42,2.42,0,0,1-.15.87,1.51,1.51,0,0,1-.41.67,1.83,1.83,0,0,1-.64.45,2.32,2.32,0,0,1-1.72,0,1.61,1.61,0,0,1-.64-.45,1.76,1.76,0,0,1-.41-.67A1.78,1.78,0,0,1,127.2,197.61Zm.9,0a3.21,3.21,0,0,0,.07.53,2.88,2.88,0,0,0,.19.45.65.65,0,0,0,.34.3,1.31,1.31,0,0,0,1.05,0,.88.88,0,0,0,.33-.3,2.16,2.16,0,0,0,.19-.45,1.76,1.76,0,0,0,0-1,1.53,1.53,0,0,0-.19-.45,1,1,0,0,0-.33-.34,1.31,1.31,0,0,0-1.05,0,.75.75,0,0,0-.34.34,2.88,2.88,0,0,0-.19.45A1.26,1.26,0,0,0,128.1,197.61Z"/><path class="cls-14" d="M131.92,195.52h2.25a2.4,2.4,0,0,1,.52.07,1.42,1.42,0,0,1,.38.26.81.81,0,0,1,.22.38.9.9,0,0,1,.08.45,1.22,1.22,0,0,1-.15.63,1,1,0,0,1-.53.42.84.84,0,0,1,.3.15.93.93,0,0,1,.19.22c0,.08.07.19.11.3a.86.86,0,0,1,0,.3v.23a.61.61,0,0,0,0,.26c0,.07,0,.18,0,.26s0,.15.12.22h-.9a1.78,1.78,0,0,1-.08-.48c0-.19,0-.38,0-.53a.77.77,0,0,0-.18-.48.72.72,0,0,0-.49-.15h-.94v1.61H132Zm.94,1.87h1a.74.74,0,0,0,.48-.15.49.49,0,0,0,.15-.45.62.62,0,0,0-.15-.45.74.74,0,0,0-.48-.15h-1Z"/><path class="cls-14" d="M137,196.26h-1.24v-.74h3.41v.74h-1.24v3.41H137Z"/><path class="cls-14" d="M139.64,195.52h3.14v.74h-2.21v.9h2v.72h-2v1.05h2.25v.74h-3.18Z"/><path class="cls-14" d="M328.34,224.89h1.87a2,2,0,0,1,.67.11.9.9,0,0,1,.45.3,1.46,1.46,0,0,1,.27.41,2.76,2.76,0,0,1,.07.49,2.53,2.53,0,0,1-.07.48,1.18,1.18,0,0,1-.27.45,1.15,1.15,0,0,1-.45.3,2,2,0,0,1-.67.12h-.94V229h-.93Zm.93,2H330a1,1,0,0,0,.3,0,.7.7,0,0,0,.27-.08.41.41,0,0,0,.18-.19.86.86,0,0,0,0-.63.41.41,0,0,0-.18-.19.54.54,0,0,0-.27-.08c-.11,0-.18,0-.3,0h-.71Z"/><path class="cls-14" d="M332.08,227a2.23,2.23,0,0,1,.15-.86,2.12,2.12,0,0,1,.41-.71,2.66,2.66,0,0,1,.64-.49,2.35,2.35,0,0,1,1.73,0,1.57,1.57,0,0,1,.63.49,2.5,2.5,0,0,1,.41,2.43,1.49,1.49,0,0,1-.41.68,2.7,2.7,0,0,1-.63.45,2.35,2.35,0,0,1-1.73,0,2.11,2.11,0,0,1-.64-.45,2.93,2.93,0,0,1-.41-.68A2.36,2.36,0,0,1,332.08,227Zm.94,0a3.21,3.21,0,0,0,.07.53,2.88,2.88,0,0,0,.19.45,1,1,0,0,0,.34.3,1.28,1.28,0,0,0,1.05,0,1,1,0,0,0,.34-.3,2.82,2.82,0,0,0,.18-.45,2.2,2.2,0,0,0,0-.53,2.1,2.1,0,0,0-.08-.52,1.51,1.51,0,0,0-.18-.45,1.1,1.1,0,0,0-.34-.34,1.28,1.28,0,0,0-1.05,0,.8.8,0,0,0-.34.34,2.11,2.11,0,0,0-.18.45A2.15,2.15,0,0,0,333,227Z"/><path class="cls-14" d="M336.84,224.89h2.25a1.81,1.81,0,0,1,.49.07,1.44,1.44,0,0,1,.37.26,1.42,1.42,0,0,1,.26.38.9.9,0,0,1,.08.45,1.22,1.22,0,0,1-.15.63,1.1,1.1,0,0,1-.49.42.49.49,0,0,1,.26.15.93.93,0,0,1,.19.22c0,.08.07.19.11.3a.88.88,0,0,1,0,.3v.23l0,.26c0,.07,0,.18,0,.26s0,.15.11.22h-.94a1.73,1.73,0,0,1-.07-.48,2.11,2.11,0,0,0-.08-.53.75.75,0,0,0-.19-.48.55.55,0,0,0-.48-.15h-.94V229h-.94Zm.9,1.91h1a.77.77,0,0,0,.49-.15.51.51,0,0,0,.15-.45.66.66,0,0,0-.15-.45.77.77,0,0,0-.49-.15h-1Z"/><path class="cls-14" d="M341.9,225.67h-1.28v-.78h3.45v.78H342.8v3.41h-.9Z"/><path class="cls-14" d="M344.37,227a2.23,2.23,0,0,1,.15-.86,2,2,0,0,1,.41-.71,2.66,2.66,0,0,1,.64-.49,2.32,2.32,0,0,1,1.72,0,1.6,1.6,0,0,1,.64.49,2.17,2.17,0,0,1,.41.71,2.54,2.54,0,0,1,0,1.72,1.49,1.49,0,0,1-.41.68,2.09,2.09,0,0,1-2.36.45,2,2,0,0,1-.64-.45,2.27,2.27,0,0,1-.56-1.54Zm.9,0a2.43,2.43,0,0,0,.08.53,2.11,2.11,0,0,0,.18.45,1,1,0,0,0,.34.3,1.31,1.31,0,0,0,1.05,0,1,1,0,0,0,.34-.3,2.82,2.82,0,0,0,.18-.45,1.76,1.76,0,0,0,0-1.05,1.84,1.84,0,0,0-.18-.45,1.1,1.1,0,0,0-.34-.34,1.31,1.31,0,0,0-1.05,0,.8.8,0,0,0-.34.34,2.22,2.22,0,0,0-.26,1Zm1.31-2.47H346l.56-.82h.94Z"/><path class="cls-14" d="M349.09,224.89H350l1.76,2.81v-2.81h.86v4.19h-.94L350,226.27h0v2.81h-.86Z"/><path class="cls-14" d="M335.34,234.74a1.23,1.23,0,0,0,.08.37.36.36,0,0,0,.18.23.94.94,0,0,0,.3.15,1,1,0,0,0,.34,0,.57.57,0,0,0,.26,0,.7.7,0,0,0,.27-.08.3.3,0,0,0,.18-.15c.08-.07.08-.15.08-.26a.35.35,0,0,0-.11-.26.85.85,0,0,0-.3-.19,1.36,1.36,0,0,0-.42-.11l-.45-.11a2.64,2.64,0,0,1-.45-.15,1.06,1.06,0,0,1-.41-.23,1,1,0,0,1-.3-.33,1.14,1.14,0,0,1-.11-.49,1,1,0,0,1,.15-.56,2.16,2.16,0,0,1,.38-.42,1.38,1.38,0,0,1,.48-.22,2.8,2.8,0,0,1,.56-.08,3.4,3.4,0,0,1,.64.08,1.28,1.28,0,0,1,.52.22,1.36,1.36,0,0,1,.38.42,1.22,1.22,0,0,1,.15.63h-.9a.88.88,0,0,0-.07-.3.47.47,0,0,0-.19-.18,2.17,2.17,0,0,0-.26-.12,1.2,1.2,0,0,0-.3,0,.61.61,0,0,0-.23,0,.3.3,0,0,0-.19.08.31.31,0,0,0-.15.15.63.63,0,0,0-.07.22.27.27,0,0,0,0,.19c0,.08.11.11.18.15a1.47,1.47,0,0,0,.38.11l.64.15a1.85,1.85,0,0,1,.33.08,1.28,1.28,0,0,1,.41.18,1.71,1.71,0,0,1,.38.38,1.07,1.07,0,0,1,.15.56,1.29,1.29,0,0,1-.11.53,1.21,1.21,0,0,1-.34.41,2.27,2.27,0,0,1-.56.3,2.61,2.61,0,0,1-.75.11,3.94,3.94,0,0,1-.68-.08,1.16,1.16,0,0,1-.56-.26,1.26,1.26,0,0,1-.56-1.12Z"/><path class="cls-14" d="M342.08,234.55a1.64,1.64,0,0,1-.48,1.28,1.89,1.89,0,0,1-1.31.41,1.86,1.86,0,0,1-1.31-.41,1.58,1.58,0,0,1-.45-1.28v-2.62h.93v2.62a1,1,0,0,0,0,.34c0,.11.08.19.11.3a.77.77,0,0,0,.27.19,1,1,0,0,0,.44.07.77.77,0,0,0,.68-.22,1.1,1.1,0,0,0,.19-.68v-2.62h.93v2.62Z"/><path class="cls-14" d="M342.87,231.93h2.25a1.79,1.79,0,0,1,.49.08,1.08,1.08,0,0,1,.37.26,1.23,1.23,0,0,1,.26.37.9.9,0,0,1,.08.45,1.26,1.26,0,0,1-.15.64,1,1,0,0,1-.49.41.65.65,0,0,1,.45.37,1.72,1.72,0,0,1,.11.3.91.91,0,0,1,0,.3v.23a.59.59,0,0,0,0,.26c0,.08,0,.19,0,.26a.49.49,0,0,0,.11.23h-.94a1.76,1.76,0,0,1-.07-.45c0-.19,0-.38,0-.53a.75.75,0,0,0-.19-.48.56.56,0,0,0-.49-.15h-.93v1.65h-.94Zm.9,1.87h1a.77.77,0,0,0,.49-.15.51.51,0,0,0,.15-.45.68.68,0,0,0-.15-.45.77.77,0,0,0-.49-.15h-1Z"/><path class="cls-16" d="M117.2,193.76l-3.56,1.61a58.51,58.51,0,0,1-3.94-27.91l3.71,1A58.87,58.87,0,0,0,117.2,193.76Z"/><path class="cls-14" d="M207,274a33.93,33.93,0,0,1,.56-6.75,10.79,10.79,0,0,1,1.69-4.23,5.82,5.82,0,0,1,2.84-2.17,13.85,13.85,0,0,1,8.21,0,5.64,5.64,0,0,1,2.84,2.17,10.56,10.56,0,0,1,1.69,4.23,41,41,0,0,1,0,13.53A10.56,10.56,0,0,1,223.1,285a5.76,5.76,0,0,1-2.84,2.14,15.26,15.26,0,0,1-8.21,0,5.43,5.43,0,0,1-2.84-2.14,10.56,10.56,0,0,1-1.69-4.19A29.17,29.17,0,0,1,207,274Zm7.08,4.45a10,10,0,0,0,.48,3.86,1.74,1.74,0,0,0,2.36.83,1.76,1.76,0,0,0,.83-.83,9.76,9.76,0,0,0,.49-3.86v-8.91a9.79,9.79,0,0,0-.49-3.86,1.77,1.77,0,0,0-2.36-.86,1.93,1.93,0,0,0-.86.86,9.79,9.79,0,0,0-.49,3.86v8.91Z"/><path class="cls-14" d="M228.24,287.56l0-2.28a1.68,1.68,0,0,1,.15-.75,1.78,1.78,0,0,1,.38-.53,2.19,2.19,0,0,1,.56-.3,2.48,2.48,0,0,1,.71-.07,1.68,1.68,0,0,1,1.35.52,1.81,1.81,0,0,1,.41,1.43v.52l2.25,0,0,1.53Zm2.54-1.5v-.3a.63.63,0,0,0-.15-.45.7.7,0,0,0-.52-.15c-.49,0-.71.19-.71.57V286Z"/><path class="cls-14" d="M228.35,281.23l4.23.07a.73.73,0,0,0,.56-.11.46.46,0,0,0,0-.67,1,1,0,0,0-.56-.15l-4.23-.08,0-1.53,3.85.07a3.28,3.28,0,0,1,1,.15,1.56,1.56,0,0,1,.63.38,1.82,1.82,0,0,1,.34.63,3.53,3.53,0,0,1,.07.87,3.22,3.22,0,0,1-.11.86,1.52,1.52,0,0,1-.33.6,1.56,1.56,0,0,1-.68.37,4.34,4.34,0,0,1-1,.11l-3.86-.07Z"/><path class="cls-14" d="M228.39,277.71l.07-3.45h1.24l0,1.95,1,0,0-1.84,1.2,0,0,1.8,1.16,0,0-2,1.27,0-.07,3.52Z"/><path class="cls-14" d="M228.5,273.21l0-2.39a2.23,2.23,0,0,1,.11-.75,1.25,1.25,0,0,1,.82-.75,1.66,1.66,0,0,1,.64-.08,1.69,1.69,0,0,1,.94.26.94.94,0,0,1,.41.79.92.92,0,0,1,.41-.75,1.7,1.7,0,0,1,.94-.19h1a.34.34,0,0,0,.19,0,.21.21,0,0,0,.15,0l.07-.08s.08-.07.08-.11h.07l0,1.61a.61.61,0,0,1-.26.08l-.3,0h-1.31a.63.63,0,0,0-.26.07.31.31,0,0,0-.15.15.45.45,0,0,0,0,.23v.41l2.36,0,0,1.54Zm2.51-1.5v-.3a.57.57,0,0,0-.19-.48.63.63,0,0,0-.49-.15.67.67,0,0,0-.52.15.58.58,0,0,0-.15.48v.3Z"/><path class="cls-14" d="M229.88,267.48v1.13h-1.31l.08-3.83,1.27,0V266l4.57.11,0,1.5Z"/><path class="cls-14" d="M234.6,260.29l0,1.61-1,.15,0,1.2,1,.18,0,1.62-5.85-1.5,0-1.91Zm-2.24,2.77v-.86l-2.51.37Z"/><path class="cls-16" d="M332.83,258.9h-1.76v-2h5.85v2h-1.77v7h-2.32Z"/><path class="cls-16" d="M344,265.91h-2.51l-.23-1.58h-1.87l-.23,1.58h-2.43l2.17-9h3Zm-4.31-3.34H341l-.64-3.82h0Z"/><path class="cls-16" d="M350.07,267.37,348.79,266l-.3,0H348a5,5,0,0,1-1.5-.22,2.31,2.31,0,0,1-1-.79,5,5,0,0,1-.57-1.46,14.16,14.16,0,0,1,0-4.31,3.6,3.6,0,0,1,.57-1.46,2.18,2.18,0,0,1,1-.83,4.76,4.76,0,0,1,3,0,2.15,2.15,0,0,1,1,.83,5,5,0,0,1,.57,1.46,11,11,0,0,1,.15,2.14,10.43,10.43,0,0,1-.19,2.17,4.26,4.26,0,0,1-.56,1.46l1.08,1.09Zm-2.93-6c0,.6,0,1.13,0,1.5a4,4,0,0,0,.11.94,1.07,1.07,0,0,0,.23.48.64.64,0,0,0,.82,0,.83.83,0,0,0,.23-.48,4.31,4.31,0,0,0,.11-.94c0-.41,0-.9,0-1.5s0-1.12,0-1.49a4,4,0,0,0-.11-.94,1.23,1.23,0,0,0-.23-.49.64.64,0,0,0-.82,0,.8.8,0,0,0-.23.49,4.24,4.24,0,0,0-.11.94C347.18,260.33,347.14,260.81,347.14,261.41Z"/><path class="cls-16" d="M354.86,256.92v6.48a1.37,1.37,0,0,0,.19.86.67.67,0,0,0,.52.22.74.74,0,0,0,.53-.22,1.36,1.36,0,0,0,.18-.86v-6.48h2.33v5.88a5.63,5.63,0,0,1-.19,1.57,2.29,2.29,0,0,1-.6,1,1.93,1.93,0,0,1-.94.53,6.09,6.09,0,0,1-2.62,0,1.85,1.85,0,0,1-.94-.53,2.72,2.72,0,0,1-.59-1,4.45,4.45,0,0,1-.19-1.57v-5.88Z"/><path class="cls-16" d="M362.5,256.92h-2.32v9h2.32Z"/><path class="cls-16" d="M364.15,256.92h2.36V264h2.89v1.91h-5.25Z"/><path class="cls-16" d="M370.63,256.92H373V264h2.89v1.91h-5.21Z"/><path class="cls-16" d="M383.67,265.91h-2.51l-.23-1.58h-1.87l-.22,1.58h-2.48l2.18-9h2.92Zm-4.31-3.34h1.31l-.63-3.82h0Z"/><path class="cls-16" d="M330.62,269h5.51v.56h-2.44v6.37H333v-6.37h-2.4Z"/><path class="cls-16" d="M338,269h-.67v7H338Z"/><path class="cls-16" d="M345,271.08a1.72,1.72,0,0,0-.3-.71,2,2,0,0,0-.49-.53,2,2,0,0,0-.64-.33,2.16,2.16,0,0,0-.71-.12,2.79,2.79,0,0,0-1.2.26,2.18,2.18,0,0,0-.82.72,2.38,2.38,0,0,0-.45,1,3.86,3.86,0,0,0,.45,3.22,2.44,2.44,0,0,0,.82.71,2.66,2.66,0,0,0,1.2.27,2.09,2.09,0,0,0,1.54-.64,3.15,3.15,0,0,0,.45-.71,3.5,3.5,0,0,0,.22-.86h.64a4.22,4.22,0,0,1-.3,1.16,2.51,2.51,0,0,1-.6.86,3.1,3.1,0,0,1-.86.56,3,3,0,0,1-1.13.19,3.21,3.21,0,0,1-1.42-.3,2.64,2.64,0,0,1-1-.79,3.13,3.13,0,0,1-.6-1.16,4.88,4.88,0,0,1,0-2.73,3.42,3.42,0,0,1,.6-1.17,3.08,3.08,0,0,1,1-.78,3.48,3.48,0,0,1,2.4-.15,2.54,2.54,0,0,1,.86.45,2.28,2.28,0,0,1,.64.71,2.34,2.34,0,0,1,.33,1Z"/><path class="cls-16" d="M347.26,269h.67v3.75l4-3.75h.9l-3.11,2.88,3.26,4.05h-.86l-2.89-3.59-1.31,1.23v2.36h-.67Z"/><path class="cls-16" d="M354,269h4.83v.56h-4.16v2.51h3.86v.56h-3.86v2.74h4.2v.56H354Z"/><path class="cls-16" d="M359.58,269h5.51v.56h-2.44v6.37H362v-6.37h-2.4Z"/><path class="cls-16" d="M366.92,269h-.67v7h.67Z"/><path class="cls-16" d="M368.83,269h.75l4.05,5.88h0V269h.67v6.93h-.75l-4-5.88h0v5.88h-.68Z"/><path class="cls-16" d="M382.13,275.91h-.48l-.08-1.27h0a2.28,2.28,0,0,1-.45.63,2,2,0,0,1-.56.45,3.7,3.7,0,0,1-.67.26,4.9,4.9,0,0,1-.75.08,3.23,3.23,0,0,1-1.43-.3,2.64,2.64,0,0,1-1-.79,3.2,3.2,0,0,1-.6-1.16,4.88,4.88,0,0,1,0-2.73,3.56,3.56,0,0,1,.6-1.16,3,3,0,0,1,1-.79,3.09,3.09,0,0,1,1.43-.3,3.51,3.51,0,0,1,1,.15,2.64,2.64,0,0,1,1.5,1.16,3.05,3.05,0,0,1,.37,1h-.67a3.51,3.51,0,0,0-.19-.6,1.64,1.64,0,0,0-.45-.56,2.47,2.47,0,0,0-.67-.41,2.65,2.65,0,0,0-.9-.15,2.6,2.6,0,0,0-1.2.26,2.18,2.18,0,0,0-.83.71,2.72,2.72,0,0,0-.45,1,4.71,4.71,0,0,0,0,2.24,4.84,4.84,0,0,0,.45,1,2.37,2.37,0,0,0,2,1,3.11,3.11,0,0,0,1-.18,2.18,2.18,0,0,0,.75-.53,1.84,1.84,0,0,0,.45-.82,3.26,3.26,0,0,0,.15-1h-2.36v-.57h3Z"/><g class="cls-17"><g class="cls-17"><g class="cls-17"><path class="cls-18" d="M20.81,257a4,4,0,0,1-.68,1.32,3.3,3.3,0,0,1-1,.93,3.1,3.1,0,0,1-1.24.49,4.2,4.2,0,0,1-1.5,0,3.67,3.67,0,0,1-2.51-1.76,4.32,4.32,0,0,1-.52-1.54,4.7,4.7,0,0,1,.07-1.79,7,7,0,0,1,.53-1.5,4,4,0,0,1,1-1.31,4.1,4.1,0,0,1,1.43-.83,3.86,3.86,0,0,1,1.91,0,3.66,3.66,0,0,1,1.42.57,3.35,3.35,0,0,1,.9.9,2.57,2.57,0,0,1,.45,1,2,2,0,0,1,0,.9l-.23,0a2.65,2.65,0,0,0-.07-.94,3.61,3.61,0,0,0-.49-.93,2.81,2.81,0,0,0-.86-.75,3.44,3.44,0,0,0-1.2-.45,3.39,3.39,0,0,0-1.84.07,3.6,3.6,0,0,0-1.35.83,4.86,4.86,0,0,0-.9,1.23,6.62,6.62,0,0,0-.48,1.35,5.92,5.92,0,0,0-.08,1.57,5.17,5.17,0,0,0,.45,1.43,3.41,3.41,0,0,0,.94,1.12,3.05,3.05,0,0,0,1.46.64,3,3,0,0,0,1.39,0A2.77,2.77,0,0,0,19,258.9a3.5,3.5,0,0,0,.9-.9,4.76,4.76,0,0,0,.63-1.23Z"/><path class="cls-18" d="M22.34,260.89l5.58-8,.23,0-5.58,8Z"/><path class="cls-18" d="M29.27,262.05l-.22,0,1.65-8.39,3.4.67a2.79,2.79,0,0,1,1.77.94,2.29,2.29,0,0,1,.33,1.84,2,2,0,0,1-.41.93,1.8,1.8,0,0,1-.71.6,2.53,2.53,0,0,1-.94.26,3.49,3.49,0,0,1-1.08-.07l-3-.6ZM30.1,258l3.14.64a3,3,0,0,0,.94,0,2.15,2.15,0,0,0,.82-.27,1.89,1.89,0,0,0,.6-.56,1.74,1.74,0,0,0,.34-.82,2.13,2.13,0,0,0-.26-1.65,2.5,2.5,0,0,0-1.65-.86l-3.15-.64Z"/><path class="cls-18" d="M39.54,255.33l-1.66,8.41.22.05,1.66-8.42Z"/><path class="cls-18" d="M43.06,256.05l.34.08,4.15,9.22h0l1.57-8.1.27,0-1.69,8.43-.34-.08-4.15-9.25-1.62,8.09-.22,0Z"/><path class="cls-18" d="M51.86,258l0-.23,6.26,1.24,0,.22-3-.59-1.61,8.16-.26,0,1.61-8.16Z"/><path class="cls-18" d="M59.58,263.66a5.48,5.48,0,0,1,.6-1.65,4.08,4.08,0,0,1,1-1.24,3.54,3.54,0,0,1,1.39-.71,3.84,3.84,0,0,1,1.72,0,3.73,3.73,0,0,1,1.61.72,3.11,3.11,0,0,1,1,1.2,3.85,3.85,0,0,1,.45,1.53,5.48,5.48,0,0,1-.07,1.76,5.55,5.55,0,0,1-.6,1.65A3.8,3.8,0,0,1,61,268.15,3.11,3.11,0,0,1,60,267a3.9,3.9,0,0,1-.45-1.54A5.84,5.84,0,0,1,59.58,263.66Zm.22.07a5.31,5.31,0,0,0-.07,1.73,4.52,4.52,0,0,0,.45,1.46,3.44,3.44,0,0,0,1,1.09,3.63,3.63,0,0,0,1.46.59,3.51,3.51,0,0,0,1.58,0A3.32,3.32,0,0,0,65.5,268a4.14,4.14,0,0,0,1-1.16,6.54,6.54,0,0,0,.6-1.61,5.61,5.61,0,0,0,.08-1.73A5.07,5.07,0,0,0,66.7,262a3.37,3.37,0,0,0-1-1.09,4,4,0,0,0-3-.59,3.2,3.2,0,0,0-1.31.63,3.73,3.73,0,0,0-1,1.16A7,7,0,0,0,59.8,263.73Z"/><path class="cls-18" d="M69.77,270l-.23,0,1.65-8.39,3.45.67a3.3,3.3,0,0,1,1.84.9,2,2,0,0,1,.3,1.76,2.14,2.14,0,0,1-.72,1.31,2.45,2.45,0,0,1-1.5.49v0a2.3,2.3,0,0,1,.83.41,1.19,1.19,0,0,1,.41.56,2.31,2.31,0,0,1,.11.75,8.51,8.51,0,0,1-.11.94,3.07,3.07,0,0,0-.07.45c0,.19,0,.37-.08.52a2,2,0,0,0,0,.49.71.71,0,0,0,0,.3l-.26,0a1.17,1.17,0,0,1,0-.37,2.2,2.2,0,0,1,0-.49c0-.19,0-.34.07-.49a1.78,1.78,0,0,0,.08-.45,4.22,4.22,0,0,0,.11-.93,1.29,1.29,0,0,0-.19-.75,1.62,1.62,0,0,0-.6-.56,3.9,3.9,0,0,0-1.12-.38l-3.15-.64Zm.82-4.16,3.15.64a4.08,4.08,0,0,0,.94.07,3.09,3.09,0,0,0,.82-.22,2.49,2.49,0,0,0,.68-.57,2.15,2.15,0,0,0,.37-.9,1.91,1.91,0,0,0-.26-1.49,2.44,2.44,0,0,0-1.65-.83l-3.26-.63Z"/><path class="cls-18" d="M93.26,265.94l.37.08L92,274.45l-.26-.08,1.61-8.09-5.17,7.38-.26,0-2-8.8-1.62,8.09-.22,0,1.65-8.39.37.08,2,8.8Z"/><path class="cls-18" d="M96.44,272.42,94.79,275l-.26,0,5.06-7.71.3.07,1.65,9.07-.26,0-.57-3Zm4.24.6-1-5.54h0l-3.07,4.76Z"/><path class="cls-18" d="M105.77,268.42l.34.07,4.16,9.25,1.61-8.09.22,0-1.65,8.39-.33-.07L106,268.79l0,0-1.57,8.13-.27,0Z"/><path class="cls-18" d="M121.36,271.53l.22,0-1,5.29a3.62,3.62,0,0,1-1.27,2.36,3.67,3.67,0,0,1-4.57-.9,3.55,3.55,0,0,1-.3-2.66l1-5.29.22,0-1,5.28a3.65,3.65,0,0,0,.23,2.44,2.72,2.72,0,0,0,2,1.2,2.79,2.79,0,0,0,2.33-.38,3.5,3.5,0,0,0,1.16-2.17Z"/><path class="cls-18" d="M123.53,280.4l5.39,1.09,0,.23-5.62-1.13,1.64-8.39,5.59,1.09-.08.26-5.32-1.05-.75,3.67,5.06,1-.07.23-5-1Z"/><path class="cls-18" d="M136.79,283l0,.26-5.13-1.05,1.65-8.39.22.07-1.61,8.13Z"/><path class="cls-18" d="M153.8,277.89l.37.08-1.65,8.43-.22-.08,1.61-8.09h0l-5.17,7.42-.26-.08-1.95-8.8h0l-1.58,8.09-.26,0,1.68-8.4.38.08,1.95,8.8h0Z"/><path class="cls-18" d="M157,284.41,155.37,287l-.26,0,5.06-7.71.3.07,1.65,9.07-.27,0-.56-3Zm4.23.57-1-5.55h0l-3.07,4.76Z"/><path class="cls-18" d="M169.83,289.55l0,.26-5.13-1.05,1.65-8.39.23.07-1.62,8.13Z"/><path class="cls-18" d="M174,281.9l2.92.56a4.27,4.27,0,0,1,1.24.46,3,3,0,0,1,1,.89,4.34,4.34,0,0,1,.6,1.46,5.67,5.67,0,0,1-.08,2.1,4.82,4.82,0,0,1-.71,1.88,3.49,3.49,0,0,1-2.55,1.61,4.23,4.23,0,0,1-1.5-.08l-2.58-.48Zm-1.39,8.21,2.4.49a3.78,3.78,0,0,0,1.46,0,3.28,3.28,0,0,0,1.31-.49,3.2,3.2,0,0,0,1.05-1.08,5.67,5.67,0,0,0,.64-1.69,5.11,5.11,0,0,0,.07-2,3.6,3.6,0,0,0-.52-1.39,2.93,2.93,0,0,0-1-.86,4.2,4.2,0,0,0-1.19-.41l-2.67-.53Z"/><path class="cls-18" d="M182.61,288a5.48,5.48,0,0,1,.6-1.65,3.88,3.88,0,0,1,2.39-1.94,3.89,3.89,0,0,1,1.73,0,4.45,4.45,0,0,1,1.61.67,3.53,3.53,0,0,1,1,1.2,3.9,3.9,0,0,1,.45,1.54,5.93,5.93,0,0,1-.67,3.37,4.11,4.11,0,0,1-1,1.24,4.22,4.22,0,0,1-1.38.71,3.38,3.38,0,0,1-1.73,0,4.47,4.47,0,0,1-1.61-.68,3.25,3.25,0,0,1-1-1.19,4,4,0,0,1-.45-1.54A5,5,0,0,1,182.61,288Zm.22,0a6.7,6.7,0,0,0-.07,1.73,4.52,4.52,0,0,0,.45,1.46,3,3,0,0,0,1,1.08,3.51,3.51,0,0,0,1.46.6,3.78,3.78,0,0,0,1.57,0,3.3,3.3,0,0,0,1.32-.63,4.29,4.29,0,0,0,1-1.16,4.87,4.87,0,0,0,.6-1.62,5.53,5.53,0,0,0,.08-1.72,5.07,5.07,0,0,0-.45-1.46,3.49,3.49,0,0,0-1-1.09,4,4,0,0,0-3-.6,3.46,3.46,0,0,0-1.32.64,4.14,4.14,0,0,0-1,1.16A5.25,5.25,0,0,0,182.83,288Z"/><path class="cls-18" d="M194.22,285.87l.34.08,4.16,9.25,1.61-8.13.22.08-1.65,8.39-.33-.08-4.16-9.25-1.61,8.13-.23-.07Z"/><path class="cls-18" d="M203.4,293.55l-1.65,2.55-.26,0,5-7.72.31.07,1.64,9.07-.26,0-.56-3Zm4.23.6-1-5.54h0l-3.11,4.76Z"/><path class="cls-18" d="M212.69,289.55l2.92.56a3.88,3.88,0,0,1,1.24.45,2.82,2.82,0,0,1,1,.9,3.39,3.39,0,0,1,.56,1.46,5.69,5.69,0,0,1-.07,2.1,4.8,4.8,0,0,1-.72,1.87,3.42,3.42,0,0,1-2.54,1.61,5,5,0,0,1-1.5,0l-2.59-.52Zm-1.39,8.2,2.4.49a3.78,3.78,0,0,0,1.46,0,3.41,3.41,0,0,0,1.31-.48,3.52,3.52,0,0,0,1.05-1.09,5.36,5.36,0,0,0,.64-1.68,5,5,0,0,0,.07-2,3.66,3.66,0,0,0-.52-1.39,2.68,2.68,0,0,0-1-.82,4.37,4.37,0,0,0-1.2-.41l-2.66-.53Z"/><path class="cls-18" d="M221.27,295.58a5.38,5.38,0,0,1,.6-1.65,4.08,4.08,0,0,1,1-1.24,3.57,3.57,0,0,1,1.38-.71,4.1,4.1,0,0,1,3.34.67,3.19,3.19,0,0,1,1,1.2,4,4,0,0,1,.45,1.54,5.93,5.93,0,0,1-.67,3.37,3.81,3.81,0,0,1-5.74,1.28,3.28,3.28,0,0,1-1-1.2,3.9,3.9,0,0,1-.45-1.54A5.53,5.53,0,0,1,221.27,295.58Zm.22,0a5.31,5.31,0,0,0-.07,1.73,4.52,4.52,0,0,0,.45,1.46,3.34,3.34,0,0,0,1,1.09,4,4,0,0,0,3,.59,3.32,3.32,0,0,0,1.31-.63,3.56,3.56,0,0,0,1-1.16,5.79,5.79,0,0,0,.68-3.34,5.07,5.07,0,0,0-.45-1.46,3.6,3.6,0,0,0-1-1.09,3.83,3.83,0,0,0-3-.56,3.34,3.34,0,0,0-1.31.64,4,4,0,0,0-1,1.16A6.27,6.27,0,0,0,221.49,295.61Z"/></g></g></g><g class="cls-17"><g class="cls-17"><g class="cls-17"><path class="cls-18" d="M43,147.64a5.23,5.23,0,0,1,1.34.6,4.72,4.72,0,0,1,1,.93,4,4,0,0,1,.56,1.2,3.31,3.31,0,0,1,0,1.5,3.73,3.73,0,0,1-1.64,2.59,4.52,4.52,0,0,1-1.5.59,5.44,5.44,0,0,1-1.8,0,5.33,5.33,0,0,1-1.54-.45,4.51,4.51,0,0,1-1.34-.9,3.25,3.25,0,0,1-.9-1.38,3.55,3.55,0,0,1-.15-1.91,4,4,0,0,1,.48-1.43,3.64,3.64,0,0,1,.86-.93,3.34,3.34,0,0,1,1-.53,4,4,0,0,1,.9-.11l0,.22a2.12,2.12,0,0,0-.94.15,2.93,2.93,0,0,0-.9.53,3.44,3.44,0,0,0-.71.9,3.57,3.57,0,0,0-.41,1.23,3.86,3.86,0,0,0,.15,1.84,3.42,3.42,0,0,0,.9,1.31,4.56,4.56,0,0,0,1.27.83,6.55,6.55,0,0,0,1.39.41,5.9,5.9,0,0,0,1.57,0,4.28,4.28,0,0,0,1.43-.53,4,4,0,0,0,1.08-1,3.71,3.71,0,0,0,.53-2.85,4.48,4.48,0,0,0-.53-1.16,3.47,3.47,0,0,0-.93-.86,4.17,4.17,0,0,0-1.24-.56Z"/><path class="cls-18" d="M46.77,145.91l-8.28-5.17,0-.26,8.28,5.21Z"/><path class="cls-18" d="M42.31,132.61a3.09,3.09,0,0,0-1.13.08,2,2,0,0,0-.82.49,2.18,2.18,0,0,0-.52.78,4.63,4.63,0,0,0-.27,1,4.23,4.23,0,0,0,0,.94,2.62,2.62,0,0,0,.18.9,2,2,0,0,0,.53.71,1.57,1.57,0,0,0,.9.37,1.28,1.28,0,0,0,.93-.11,2,2,0,0,0,.68-.6,3.79,3.79,0,0,0,.45-.9l.41-1,.45-1.08a3.14,3.14,0,0,1,.52-.87,2,2,0,0,1,.72-.52,2.07,2.07,0,0,1,1.08-.07,1.7,1.7,0,0,1,1,.41,2.34,2.34,0,0,1,.6.79,3.67,3.67,0,0,1,.26,1,3.87,3.87,0,0,1,0,1.08,5.79,5.79,0,0,1-.37,1.31,2.51,2.51,0,0,1-.68,1,2.6,2.6,0,0,1-1,.56,3.75,3.75,0,0,1-1.42,0l0-.23a3,3,0,0,0,1.31,0,2.39,2.39,0,0,0,1-.53,3,3,0,0,0,.64-.9A6.64,6.64,0,0,0,48,136c0-.34,0-.67,0-1a3.59,3.59,0,0,0-.22-.94,1.72,1.72,0,0,0-.56-.71,1.7,1.7,0,0,0-.9-.37,1.42,1.42,0,0,0-1,.15,2.24,2.24,0,0,0-.71.63,10,10,0,0,0-.49.9c-.11.34-.26.68-.38,1a10,10,0,0,1-.41,1,4,4,0,0,1-.48.86,1.77,1.77,0,0,1-1.77.68,2.09,2.09,0,0,1-1-.41,2,2,0,0,1-.56-.79,3.91,3.91,0,0,1-.22-1,5.25,5.25,0,0,1,0-1.05,4.3,4.3,0,0,1,.3-1.13A2.28,2.28,0,0,1,41,132.43a3.51,3.51,0,0,1,1.24-.12Z"/><path class="cls-18" d="M46.24,128.79l2.62,1.54,0,.26-8-4.65,0-.29,9-2.1,0,.26-3,.71Zm.38-4.23-5.51,1.27v0L46,128.72Z"/><path class="cls-18" d="M50.74,115.72l.22,0L50.21,121l-8.46-1.27,0-.23,8.25,1.2Z"/><path class="cls-18" d="M43.54,107.33l0-.27,8,4.46,0,.27-9,2.09,0-.22,8.61-2v0Z"/><path class="cls-18" d="M49.61,105.45,52.24,107l0,.26-8-4.64,0-.3,9-2.1,0,.26-3,.71Zm.38-4.27-5.51,1.28v0l4.91,2.85Z"/><path class="cls-18" d="M45.16,96.35l.41-3a4.47,4.47,0,0,1,.37-1.24,2.63,2.63,0,0,1,.86-1,2.86,2.86,0,0,1,1.43-.64,5.72,5.72,0,0,1,2.1,0,5.83,5.83,0,0,1,1.91.6,3.77,3.77,0,0,1,1.2,1.09A3.86,3.86,0,0,1,54,93.5,5.27,5.27,0,0,1,54,95l-.37,2.58Zm8.28,1,.33-2.43a3.59,3.59,0,0,0,0-1.46,3.12,3.12,0,0,0-.56-1.28,3.07,3.07,0,0,0-1.12-1,4.64,4.64,0,0,0-1.72-.56,6,6,0,0,0-2,0,3.57,3.57,0,0,0-1.35.6,2.64,2.64,0,0,0-.79,1,4.37,4.37,0,0,0-.37,1.24l-.37,2.65Z"/><path class="cls-18" d="M50.77,87.47A6.23,6.23,0,0,1,49.09,87a4.52,4.52,0,0,1-1.31-.93A3.26,3.26,0,0,1,47,84.7,3.39,3.39,0,0,1,46.88,83a3.6,3.6,0,0,1,.6-1.61,3.39,3.39,0,0,1,1.12-1.08,4.86,4.86,0,0,1,1.54-.53,6,6,0,0,1,3.41.49,4.21,4.21,0,0,1,1.31,1,3.3,3.3,0,0,1,.78,1.35,4.28,4.28,0,0,1-.48,3.37A3.46,3.46,0,0,1,54,87a4.28,4.28,0,0,1-1.53.53A7.34,7.34,0,0,1,50.77,87.47Zm0-.22a5.59,5.59,0,0,0,1.73,0A3.58,3.58,0,0,0,54,86.68a3.38,3.38,0,0,0,1-1,4,4,0,0,0,.45-3.07,3.31,3.31,0,0,0-.71-1.27,3.64,3.64,0,0,0-1.24-.9,5.44,5.44,0,0,0-3.37-.49,3.77,3.77,0,0,0-1.43.52,3.37,3.37,0,0,0-1,1A3.16,3.16,0,0,0,47.14,83a4.43,4.43,0,0,0,.08,1.58,3.19,3.19,0,0,0,.71,1.27,3.6,3.6,0,0,0,1.23.9A4.62,4.62,0,0,0,50.81,87.25Z"/><path class="cls-18" d="M56.62,77l0,.23L48.12,76l.52-3.45a2.92,2.92,0,0,1,.82-1.87,2.23,2.23,0,0,1,1.73-.41,1.92,1.92,0,0,1,1.35.67,2.43,2.43,0,0,1,.56,1.46h0a2.17,2.17,0,0,1,.37-.82,1.64,1.64,0,0,1,.56-.45,1.74,1.74,0,0,1,.75-.15,8.13,8.13,0,0,1,.94.08l.45,0a2.41,2.41,0,0,0,.52,0h.49a.71.71,0,0,0,.3,0l0,.27a1.54,1.54,0,0,1-.37,0h-.49c-.19,0-.34,0-.53,0l-.44-.08a7.43,7.43,0,0,0-.94-.07,1.34,1.34,0,0,0-.75.22,1.6,1.6,0,0,0-.53.6,6.21,6.21,0,0,0-.33,1.16l-.45,3.19Zm-4.2-.6.45-3.14a3.7,3.7,0,0,0,0-.94,2.07,2.07,0,0,0-.26-.83,2,2,0,0,0-1.54-1,1.77,1.77,0,0,0-1.49.34,2.5,2.5,0,0,0-.75,1.68l-.49,3.3Z"/><path class="cls-18" d="M56,61.51l2.62,1.54,0,.26-8-4.65,0-.3,9-2.1,0,.27-3,.71Zm.37-4.23-5.47,1.27v0l4.91,2.84Z"/><path class="cls-18" d="M60.55,48.44l.23,0L60,53.64l-8.47-1.23,0-.23,8.2,1.2Z"/><path class="cls-18" d="M61.68,40.68l.22,0-.75,5.17-8.46-1.24,0-.22L61,45.62Z"/><path class="cls-18" d="M62.09,37.83l.79-5.43.22,0-.82,5.69L53.81,36.9l.82-5.66.23,0-.79,5.39,3.71.56.75-5.09.22,0-.74,5Z"/><path class="cls-18" d="M55.05,28.43l0-.34,9-4.61-8.17-1.19L56,22l8.47,1.24-.08.37-9,4.61,8.17,1.2,0,.23Z"/><path class="cls-18" d="M56.47,18.69l.41-3a4.48,4.48,0,0,1,.38-1.24,2.57,2.57,0,0,1,.86-1.05,3.32,3.32,0,0,1,1.42-.63,5.72,5.72,0,0,1,2.1,0,5.83,5.83,0,0,1,1.91.6,3.67,3.67,0,0,1,1.2,1.09,4.5,4.5,0,0,1,.56,1.38,5,5,0,0,1,0,1.5L65,19.93Zm8.24,1,.34-2.43a4,4,0,0,0,0-1.46,3.26,3.26,0,0,0-.56-1.28,3.1,3.1,0,0,0-1.13-1A4.53,4.53,0,0,0,61.6,13a6,6,0,0,0-2,0,3.57,3.57,0,0,0-1.35.6,2.49,2.49,0,0,0-.79,1,4.07,4.07,0,0,0-.37,1.24l-.38,2.65Z"/><path class="cls-18" d="M66.13,9.92l.79-5.47.26,0-.82,5.7L57.89,9l.83-5.62.22,0-.78,5.39,3.7.53.72-5.06.26,0-.75,5.05Z"/></g></g></g><path class="cls-19" d="M97.83,199.07l-73.8.49-.15-21.95,73.84-.49,9.4,10.9Z"/><path class="cls-16" d="M31.71,182.48H30.28v-1.57l4.84,0v1.57l-1.47,0,0,5.54H31.74Z"/><path class="cls-16" d="M37.42,180.87h-2l.05,7.12,1.94,0Z"/><path class="cls-16" d="M38.23,180.87l4.42,0v1.5l-2.48,0v1.2H42.5V185H40.21v1.42h2.55V188l-4.46,0Z"/><path class="cls-16" d="M43.43,180.83l2.18,0,1.27,4.42v-4.42h1.8l0,7.12-2.09,0-1.35-4.42,0,4.42H43.47Z"/><path class="cls-16" d="M49.58,180.79h2.81a2.43,2.43,0,0,1,1.31.3,1.81,1.81,0,0,1,.71.79,4,4,0,0,1,.3,1.12c0,.42.07.9.07,1.35s0,.9,0,1.35a3.54,3.54,0,0,1-.27,1.12,1.81,1.81,0,0,1-.71.79,2.26,2.26,0,0,1-1.31.3H49.65Zm2,5.77h.38a2.34,2.34,0,0,0,.45-.07.74.74,0,0,0,.26-.3,2.3,2.3,0,0,0,.11-.68v-1.16a9.6,9.6,0,0,0,0-1.16,2,2,0,0,0-.11-.67.42.42,0,0,0-.26-.3,1.78,1.78,0,0,0-.45-.08h-.38Z"/><path class="cls-16" d="M60.89,187.84H58.83l-.22-1.24H57.07l-.19,1.24h-2l1.72-7.16H59Zm-3.6-2.63h1.09l-.56-3Z"/><path class="cls-16" d="M63.66,184.28a11.9,11.9,0,0,1,.12-1.69,3.35,3.35,0,0,1,.44-1.16,1.77,1.77,0,0,1,.83-.67,3.74,3.74,0,0,1,2.47,0,1.54,1.54,0,0,1,.83.63,3.12,3.12,0,0,1,.44,1.17,8,8,0,0,1,.15,1.68,12,12,0,0,1-.11,1.69,3.25,3.25,0,0,1-.45,1.16,1.55,1.55,0,0,1-.82.64,4.14,4.14,0,0,1-2.51,0,1.61,1.61,0,0,1-.83-.64,3.14,3.14,0,0,1-.44-1.16A10.61,10.61,0,0,1,63.66,184.28Zm2,0a10.6,10.6,0,0,0,0,1.2,4.76,4.76,0,0,0,.07.75,1.08,1.08,0,0,0,.19.37.55.55,0,0,0,.34.11.47.47,0,0,0,.33-.11.6.6,0,0,0,.19-.37,4.76,4.76,0,0,0,.07-.75,11.9,11.9,0,0,0,0-1.2c0-.49,0-.86,0-1.2a4.78,4.78,0,0,0-.08-.75,1.08,1.08,0,0,0-.19-.37.62.62,0,0,0-.71,0,.51.51,0,0,0-.18.37,4.78,4.78,0,0,0-.08.75A10.24,10.24,0,0,1,65.65,184.24Z"/><path class="cls-16" d="M69.62,180.64l4.42,0v1.54H71.57l0,1.24h2.29v1.46H71.6v2.92l-1.91,0Z"/><path class="cls-16" d="M76.53,180.6l-2,0,0,7.11h2Z"/><path class="cls-16" d="M80.33,182.74a1.87,1.87,0,0,0-.15-.82.47.47,0,0,0-.41-.23.58.58,0,0,0-.34.11.63.63,0,0,0-.18.38,4.78,4.78,0,0,0-.08.75v1.2a10.69,10.69,0,0,0,0,1.2,6.17,6.17,0,0,0,.07.74,1.23,1.23,0,0,0,.19.38.65.65,0,0,0,.34.11,1.09,1.09,0,0,0,.3-.07,1,1,0,0,0,.19-.3,3.21,3.21,0,0,0,.07-.53,5.58,5.58,0,0,0,0-.82h1.87v.52a3.52,3.52,0,0,1-.18,1.24,1.67,1.67,0,0,1-.56.75,1.86,1.86,0,0,1-.79.37,3.48,3.48,0,0,1-.9.12,4.2,4.2,0,0,1-1.35-.19,1.5,1.5,0,0,1-.82-.64,2.5,2.5,0,0,1-.42-1.16,13.57,13.57,0,0,1-.11-1.69,14.19,14.19,0,0,1,.11-1.72,3.31,3.31,0,0,1,.42-1.16,1.55,1.55,0,0,1,.82-.64,2.87,2.87,0,0,1,1.27-.18,3.66,3.66,0,0,1,1.13.15,2,2,0,0,1,.75.44,1.91,1.91,0,0,1,.41.72,4,4,0,0,1,.15.93v.45H80.3Z"/><path class="cls-16" d="M84.81,180.57h-2l0,7.12,2,0Z"/><path class="cls-16" d="M91.12,187.65H89.06l-.18-1.24H87.34l-.19,1.24h-2l1.72-7.16h2.44ZM87.56,185h1.09l-.56-3h0Z"/><path class="cls-16" d="M91.42,180.49h1.91l0,5.62h2.4v1.5l-4.31,0Z"/><path class="cls-16" d="M30.1,194a3,3,0,0,1,.15-1.05,2.6,2.6,0,0,1,.48-.9,2.84,2.84,0,0,1,.83-.64,3.17,3.17,0,0,1,2.32,0,2.56,2.56,0,0,1,.82.6,2,2,0,0,1,.49.9,3.53,3.53,0,0,1,.19,1,3.34,3.34,0,0,1-.15,1.05,2.55,2.55,0,0,1-.49.9,2.34,2.34,0,0,1-.82.63,3,3,0,0,1-2.29,0,2.42,2.42,0,0,1-.82-.6,2.5,2.5,0,0,1-.49-.89A2.12,2.12,0,0,1,30.1,194Zm.52,0a3.37,3.37,0,0,0,.11.86,2.13,2.13,0,0,0,.38.75,1.87,1.87,0,0,0,.67.52,2.32,2.32,0,0,0,1.91,0,1.51,1.51,0,0,0,.64-.53,1.88,1.88,0,0,0,.37-.75,3.34,3.34,0,0,0,0-1.72,1.82,1.82,0,0,0-.37-.75,2.11,2.11,0,0,0-.64-.53,1.64,1.64,0,0,0-.93-.18,2.2,2.2,0,0,0-1,.22,1.42,1.42,0,0,0-.63.53,2,2,0,0,0-.38.74A2.31,2.31,0,0,0,30.62,194Z"/><path class="cls-16" d="M36.54,191.32l3.56,0v.45h-3v2h2.7v.41l-2.7,0,0,2.55h-.56Z"/><path class="cls-16" d="M41.15,191.28l3.56,0v.46h-3l0,1.94h2.66v.41l-2.66,0v2.55h-.53Z"/><path class="cls-16" d="M46.3,191.25h-.52l0,5.36h.53Z"/><path class="cls-16" d="M52,192.82a1.56,1.56,0,0,0-.22-.56,1.63,1.63,0,0,0-.41-.42,2.61,2.61,0,0,0-.53-.26,2.67,2.67,0,0,0-.6-.07,2.19,2.19,0,0,0-1,.22,1.34,1.34,0,0,0-.64.56,2.1,2.1,0,0,0-.37.75,3.17,3.17,0,0,0-.11.86,3.24,3.24,0,0,0,.11.87,2,2,0,0,0,.37.74,1.75,1.75,0,0,0,.68.53,1.8,1.8,0,0,0,1,.19,1.62,1.62,0,0,0,.71-.15,1.78,1.78,0,0,0,.53-.38,1.37,1.37,0,0,0,.37-.56,4.21,4.21,0,0,0,.19-.67h.52a3.7,3.7,0,0,1-.22.9,1.69,1.69,0,0,1-.49.67,2.26,2.26,0,0,1-.71.45,2.58,2.58,0,0,1-.9.15,3,3,0,0,1-1.16-.23,2.53,2.53,0,0,1-.82-.59,2.1,2.1,0,0,1-.49-.9,3.4,3.4,0,0,1,0-2.14,2.46,2.46,0,0,1,.49-.9,2.39,2.39,0,0,1,.82-.64,2.56,2.56,0,0,1,1.16-.22,3.07,3.07,0,0,1,.79.11,2.73,2.73,0,0,1,.71.34,3.65,3.65,0,0,1,.52.52,1.88,1.88,0,0,1,.27.75Z"/><path class="cls-16" d="M54.36,191.21h-.53l0,5.36h.52Z"/><path class="cls-16" d="M57.56,191.17h.6l2.21,5.36H59.8l-.67-1.69H56.58l-.67,1.69h-.56Zm-.83,3.26h2.21l-1.08-2.74Z"/><path class="cls-16" d="M61.23,191.13h.56v5l3.15,0v.45l-3.68,0Z"/><path class="cls-16" d="M68.68,194.69a1.41,1.41,0,0,0,.15.68,1.27,1.27,0,0,0,.38.45,1.66,1.66,0,0,0,.6.22,4.17,4.17,0,0,0,.71.08A2.09,2.09,0,0,0,71,196a2.39,2.39,0,0,0,.48-.19,1.1,1.1,0,0,0,.38-.34A.8.8,0,0,0,72,195a.64.64,0,0,0-.12-.38.92.92,0,0,0-.26-.26,1.29,1.29,0,0,0-.37-.19l-.41-.11-1.24-.3a1.84,1.84,0,0,1-.49-.15,1.6,1.6,0,0,1-.41-.22,1.86,1.86,0,0,1-.3-.38,1.24,1.24,0,0,1-.11-.52,2.34,2.34,0,0,1,.07-.45,1.1,1.1,0,0,1,.3-.49,1.83,1.83,0,0,1,.6-.41,2.89,2.89,0,0,1,1-.19,2.64,2.64,0,0,1,.78.12,2.25,2.25,0,0,1,.68.3,1.53,1.53,0,0,1,.45.52,1.7,1.7,0,0,1,.18.71h-.52a1.26,1.26,0,0,0-.15-.52,1,1,0,0,0-.34-.38,1.11,1.11,0,0,0-.48-.22,2.8,2.8,0,0,0-.57-.08,2.43,2.43,0,0,0-.52.08,2.11,2.11,0,0,0-.45.18,1,1,0,0,0-.3.34,1.24,1.24,0,0,0-.11.49,1.47,1.47,0,0,0,.07.34.67.67,0,0,0,.19.22,1.16,1.16,0,0,0,.26.15l.34.11,1.35.3a4.11,4.11,0,0,1,.56.19,1.66,1.66,0,0,1,.45.26,1,1,0,0,1,.3.38,1.55,1.55,0,0,1,.11.56v.22a1.28,1.28,0,0,1-.07.34,1,1,0,0,1-.23.34,1.57,1.57,0,0,1-.37.3,1.8,1.8,0,0,1-.6.22,2.12,2.12,0,0,1-.83.08,3.48,3.48,0,0,1-.9-.12,2,2,0,0,1-.71-.33,1.4,1.4,0,0,1-.45-.57,2.23,2.23,0,0,1-.15-.86Z"/><path class="cls-16" d="M73.14,191.06l4.42,0v.45h-2l0,4.94h-.52l0-4.94-2,0Z"/><path class="cls-16" d="M78.2,193.72a3.29,3.29,0,0,1,.15-1.05,2.46,2.46,0,0,1,.49-.9,2.68,2.68,0,0,1,.82-.64,2.43,2.43,0,0,1,1.16-.22,3,3,0,0,1,1.16.22,2.71,2.71,0,0,1,.83.6,2.6,2.6,0,0,1,.48.9,3.24,3.24,0,0,1,.19,1.05,3.34,3.34,0,0,1-.15,1,2.46,2.46,0,0,1-.49.9,2.15,2.15,0,0,1-.82.63,2.94,2.94,0,0,1-2.29,0,2.29,2.29,0,0,1-.82-.6,2.86,2.86,0,0,1-.49-.89A2.68,2.68,0,0,1,78.2,193.72Zm.52,0a3.19,3.19,0,0,0,.12.86,2,2,0,0,0,.37.75,1.87,1.87,0,0,0,.67.52,2.35,2.35,0,0,0,1.91,0,1.29,1.29,0,0,0,.64-.56,2,2,0,0,0,.38-.75,3.34,3.34,0,0,0,0-1.72,2,2,0,0,0-.38-.75,2.11,2.11,0,0,0-.64-.53,1.71,1.71,0,0,0-.93-.18,2,2,0,0,0-.94.22,1.34,1.34,0,0,0-.64.56,2.28,2.28,0,0,0-.37.75A1.52,1.52,0,0,0,78.72,193.72Z"/><path class="cls-16" d="M84.68,191h2.55a3,3,0,0,1,.63.08,1.32,1.32,0,0,1,.57.26,1,1,0,0,1,.37.45,1.26,1.26,0,0,1,.15.64,1.52,1.52,0,0,1-.26.89,1.15,1.15,0,0,1-.83.49,1.14,1.14,0,0,1,.45.15,1,1,0,0,1,.3.26.67.67,0,0,1,.15.38,1.78,1.78,0,0,1,.08.45v.34a1.08,1.08,0,0,0,0,.37,1.33,1.33,0,0,0,.07.38.61.61,0,0,0,.15.26h-.6a.4.4,0,0,1-.07-.19c0-.07,0-.15,0-.23v-.41c0-.18,0-.37,0-.56a1.76,1.76,0,0,0-.15-.49.77.77,0,0,0-.34-.37.82.82,0,0,0-.6-.11h-2v2.39h-.52Zm.52,2.55h2a2.34,2.34,0,0,0,.45-.07.8.8,0,0,0,.37-.23.85.85,0,0,0,.27-.34,1.06,1.06,0,0,0,.11-.45,1.17,1.17,0,0,0-.3-.78,1.34,1.34,0,0,0-.9-.3h-2Z"/><path class="cls-16" d="M90.3,191h3.86v.41l-3.34,0v1.94l3.11,0,0,.46H90.82l0,2.13,3.37,0v.45l-3.89,0Z"/><path class="cls-20" d="M114.16,215.26a9,9,0,1,0-9-9A9,9,0,0,0,114.16,215.26Z"/><path d="M113.53,203.76l-1.84.75-.3-2.14,2.4-1.2h2.36v9.59h-2.66v-7Z"/><path class="cls-20" d="M280.23,272a9,9,0,1,0-9-9A9,9,0,0,0,280.23,272Z"/><path d="M276.9,265.46c1.54-1.24,3.93-3.56,3.93-4.68,0-.49-.45-.75-1.08-.75a4.9,4.9,0,0,0-2.29.82l-.41-2.09a5.26,5.26,0,0,1,3.18-.94c2.18,0,3.34,1,3.34,2.66,0,2-1.69,3.63-3.22,4.91h3.41v2.17h-6.37Z"/><path class="cls-20" d="M289.38,224.89a9,9,0,1,0-9-9A9,9,0,0,0,289.38,224.89Z"/><path d="M285.82,219.94l.3-2.21a5.89,5.89,0,0,0,2.43.6c1.05,0,1.57-.3,1.57-.9s-.6-1-1.79-1h-.72l-.07-1.83h.82c1,0,1.54-.3,1.54-.94s-.45-.75-1.35-.75a4.28,4.28,0,0,0-2.25.64l-.33-2a5,5,0,0,1,3.11-.82c2.36,0,3.59.86,3.59,2.51a2.34,2.34,0,0,1-1.61,2.25,2.34,2.34,0,0,1,1.76,2.32c0,1.87-1.31,2.88-3.82,2.88A8.24,8.24,0,0,1,285.82,219.94Z"/><path class="cls-20" d="M340.66,222.23a9,9,0,1,0-9-9A9,9,0,0,0,340.66,222.23Z"/><path d="M340.89,215.9h-4.35v-1.69l3.86-6.07h3.15v6h1.27v1.8h-1.27v1.83h-2.66Zm0-1.84V210.8l-2,3.26Z"/><path class="cls-20" d="M257.12,219.12a9,9,0,1,0-9-9A9,9,0,0,0,257.12,219.12Z"/><path d="M253.6,214.17l.26-2.24a8,8,0,0,0,2.62.56c1,0,1.58-.34,1.58-1.05s-.42-1-1.24-1a3,3,0,0,0-1.12.23l-1.73-.26.45-5.4h5.81v2.18h-3.78l-.12,1.31a5.79,5.79,0,0,1,1.16-.12,2.77,2.77,0,0,1,3.11,3c0,2.21-1.34,3.3-4,3.3A8.23,8.23,0,0,1,253.6,214.17Z"/><path class="cls-20" d="M223.22,209.27a9,9,0,1,0-9-9A9,9,0,0,0,223.22,209.27Z"/><path d="M219.62,201a5.9,5.9,0,0,1,5.58-6l.41,2.25a4.21,4.21,0,0,0-3.33,1.83l.11.12a3.46,3.46,0,0,1,2-.57c1.65,0,2.62,1.05,2.62,2.89,0,2.21-1.38,3.41-3.59,3.41C220.93,205,219.62,203.46,219.62,201Zm4.76.75c0-.79-.38-1.2-1.13-1.2a1.06,1.06,0,0,0-1.16,1.2,1,1,0,0,0,1.16,1.19C224,202.93,224.38,202.52,224.38,201.74Z"/><path class="cls-20" d="M241.31,198.29a9,9,0,1,0-9-9A9,9,0,0,0,241.31,198.29Z"/><path d="M242,186.34h-4.05v-2.17h6.71v2.32l-3.23,7.27h-2.84Z"/><path class="cls-20" d="M225.84,259.65a9,9,0,1,0-9-9A9,9,0,0,0,225.84,259.65Z"/><path d="M222,252.61a3.27,3.27,0,0,1,1.57-2.43,2.88,2.88,0,0,1-1.2-2.1c0-1.73,1.24-2.66,3.45-2.66s3.29.93,3.29,2.54a2.87,2.87,0,0,1-1.08,2.07,2.74,2.74,0,0,1,1.57,2.36c0,1.87-1.38,2.92-3.82,2.92S222,254.37,222,252.61Zm4.94-.15c0-.6-.56-1.09-1.61-1.39a1.51,1.51,0,0,0-.75,1.28c0,.75.45,1.12,1.28,1.12S227,253.13,227,252.46Zm-.15-4.31c0-.6-.33-.9-1-.9s-1,.3-1,.9.44,1,1.27,1.2A1.43,1.43,0,0,0,226.81,248.15Z"/><path class="cls-20" d="M207.45,223.32a9,9,0,1,0-9-9A9,9,0,0,0,207.45,223.32Z"/><path d="M205.08,216.76a4.37,4.37,0,0,0,3.34-1.8l-.11-.11a3.52,3.52,0,0,1-1.91.56c-1.73,0-2.63-1.12-2.63-3,0-2.24,1.31-3.33,3.49-3.33,2.54,0,3.86,1.5,3.86,4a5.9,5.9,0,0,1-5.59,6Zm3.53-4.5a1,1,0,0,0-1.17-1.19c-.78,0-1.12.41-1.12,1.19s.38,1.2,1.12,1.2A1,1,0,0,0,208.61,212.26Z"/></svg>