<svg width="32" height="19" viewBox="0 0 32 19" fill="none" xmlns="http://www.w3.org/2000/svg">
<path d="M22.4 4.94792C22.95 4.94792 23.4 5.3487 23.4 5.9375V6.13542H26.4C26.95 6.13542 27.4 6.5362 27.4 7.125C27.4 7.66927 26.95 8.11458 26.4 8.11458H26.3L26.22 8.33724C25.775 9.50495 25.095 10.643 24.235 11.5732C24.28 11.5979 24.325 11.5831 24.37 11.6523L25.315 12.2115C25.79 12.4935 25.94 13.1021 25.655 13.5721C25.375 14.0422 24.76 14.1906 24.285 13.9086L23.34 13.3495C23.12 13.2159 22.855 13.0773 22.685 12.9289C22.16 13.3 21.59 13.6216 20.99 13.8888L20.805 13.968C20.3 14.1906 19.71 13.963 19.485 13.4633C19.26 12.9635 19.49 12.3797 19.995 12.157L20.175 12.0779C20.495 11.9344 20.805 11.7315 21.1 11.593L20.495 10.9893C20.1 10.6034 20.1 9.97995 20.495 9.59401C20.885 9.20312 21.515 9.20312 21.905 9.59401L22.635 10.3115L22.665 10.2966C23.285 9.69297 23.79 8.94089 24.155 8.07005H18.8C18.205 8.07005 17.8 7.66927 17.8 7.08047C17.8 6.5362 18.205 6.09089 18.8 6.09089H21.4V5.89297C21.4 5.3487 21.805 4.90339 22.4 4.90339V4.94792V4.94792ZM8 8.37188L8.95 10.4896H7.005L8 8.37188ZM0 3.16667C0 1.41758 1.4325 0 3.2 0H28.8C30.565 0 32 1.41758 32 3.16667V15.8333C32 17.5799 30.565 19 28.8 19H3.2C1.4325 19 0 17.5799 0 15.8333V3.16667ZM16 15.8333H28.8V3.16667H16V15.8333ZM8.915 5.53672C8.755 5.18047 8.395 4.94792 8 4.94792C7.605 4.94792 7.245 5.18047 7.085 5.53672L3.886 12.6617C3.662 13.1169 3.889 13.7453 4.394 13.968C4.8985 14.1906 5.49 13.963 5.715 13.4633L6.16 12.4242H9.84L10.285 13.4633C10.51 13.963 11.1 14.1906 11.605 13.968C12.11 13.7453 12.34 13.1169 12.115 12.6617L8.915 5.53672V5.53672Z" fill="white"/>
</svg>
