<svg width="20" height="33" viewBox="0 0 20 33" fill="none" xmlns="http://www.w3.org/2000/svg">
<path d="M19.4969 8.17826C19.4549 8.03478 19.3816 7.80761 19.2767 7.49674C19.1719 7.18587 19.0985 6.98261 19.0566 6.88696C18.1761 4.54348 16.8868 2.80978 15.1887 1.68587C13.4906 0.561957 11.7191 0 9.87421 0C7.48428 0 5.32495 0.896739 3.39623 2.69022C1.46751 4.4837 0.33543 7.00652 0 10.2587V11.6217L0.0628931 11.9804V12.4826C0.146751 13.2478 0.366876 14.1207 0.72327 15.1011C1.07966 16.0815 1.40461 16.8707 1.69811 17.4685C1.99161 18.0663 2.46331 18.975 3.11321 20.1946C3.7631 21.4141 4.19287 22.2152 4.40252 22.5978C5.61845 24.9413 7.48428 28.4087 10 33C10.3354 32.3783 11.4885 30.1304 13.4591 26.2565C13.543 26.113 13.7002 25.8261 13.9308 25.3957C14.1614 24.9652 14.3187 24.6304 14.4025 24.3913C14.4864 24.2478 14.6226 24.0446 14.8113 23.7815C15 23.5185 15.1363 23.3152 15.2201 23.1717C15.5136 22.55 16.153 21.3663 17.1384 19.6207C18.1237 17.875 18.847 16.4043 19.3082 15.2087C19.7694 14.013 20 12.8413 20 11.6935V10.1152C20 9.58913 19.8323 8.94348 19.4969 8.17826ZM9.93711 15.2804C8.30189 15.2804 7.16981 14.3717 6.54088 12.5543C6.49895 12.3152 6.47799 11.9565 6.47799 11.4783V10.5457C6.47799 9.35 6.83438 8.42935 7.54717 7.7837C8.25996 7.13804 9.09853 6.81522 10.0629 6.81522C11.1111 6.81522 11.9811 7.22174 12.673 8.03478C13.3648 8.84783 13.7107 9.85217 13.7107 11.0478C13.7107 12.2435 13.3438 13.2478 12.6101 14.0609C11.8763 14.8739 10.9853 15.2804 9.93711 15.2804Z" fill="white"/>
</svg>
