<svg width="27" height="29" viewBox="0 0 27 29" fill="none" xmlns="http://www.w3.org/2000/svg">
<path d="M6 0C4.35 0 3 1.305 3 2.9C3 4.495 4.35 5.8 6 5.8C7.65 5.8 9 4.5095 9 2.9C9 1.2905 7.665 0 6 0ZM3 7.25C1.335 7.25 0 8.5405 0 10.15V18.85H3V29H10.5V13.92L14.295 20.3H17.955L19.5 18.357V29H25.5V21.75H27V17.4C27 15.7905 25.665 14.5 24 14.5H20.25C19.35 14.5 18.555 14.877 18 15.486C17.505 16.095 16.98 16.762 16.5 17.4H16.035L10.5 8.207C10.26 7.801 9.33 7.25 8.25 7.25H3ZM22.5 8.7C21.255 8.7 20.25 9.6715 20.25 10.875C20.25 12.0785 21.255 13.05 22.5 13.05C23.745 13.05 24.75 12.0785 24.75 10.875C24.75 9.6715 23.745 8.7 22.5 8.7Z" fill="white"/>
</svg>
