<svg width="32" height="30" viewBox="0 0 32 30" fill="none" xmlns="http://www.w3.org/2000/svg">
<path d="M8.48754 18.5179C6.0493 18.5179 4.00766 20.1537 3.33792 22.3759H0V25.4623H3.33792C4.00766 27.6845 6.0493 29.3203 8.48754 29.3203C10.9258 29.3203 12.9674 27.6845 13.6372 25.4623H30.8638V22.3759H13.6372C12.9674 20.1537 10.9258 18.5179 8.48754 18.5179ZM8.48754 26.2339C7.21133 26.2339 6.17276 25.1953 6.17276 23.9191C6.17276 22.6429 7.21133 21.6043 8.48754 21.6043C9.76376 21.6043 10.8023 22.6429 10.8023 23.9191C10.8023 25.1953 9.76376 26.2339 8.48754 26.2339ZM22.3763 9.25879C19.938 9.25879 17.8964 10.8946 17.2266 13.1168H0V16.2031H17.2266C17.8964 18.4253 19.938 20.0611 22.3763 20.0611C24.8145 20.0611 26.8561 18.4253 27.5259 16.2031H30.8638V13.1168H27.5259C26.8561 10.8946 24.8145 9.25879 22.3763 9.25879ZM22.3763 16.9747C21.1 16.9747 20.0615 15.9362 20.0615 14.66C20.0615 13.3837 21.1 12.3452 22.3763 12.3452C23.6525 12.3452 24.691 13.3837 24.691 14.66C24.691 15.9362 23.6525 16.9747 22.3763 16.9747Z" fill="white"/>
<path d="M16.7235 3.85797C16.0538 1.63578 14.0122 0 11.5739 0C9.13568 0 7.09404 1.63578 6.4243 3.85797H0V6.94435H6.4243C7.09404 9.16655 9.13568 10.8023 11.5739 10.8023C14.0122 10.8023 16.0538 9.16655 16.7235 6.94435H31.0567V3.85797H16.7235ZM11.5739 7.71595C10.2977 7.71595 9.25914 6.67738 9.25914 5.40116C9.25914 4.12495 10.2977 3.08638 11.5739 3.08638C12.8501 3.08638 13.8887 4.12495 13.8887 5.40116C13.8887 6.67738 12.8501 7.71595 11.5739 7.71595Z" fill="white"/>
</svg>
