<svg width="196" height="48" viewBox="0 0 196 48" fill="none" xmlns="http://www.w3.org/2000/svg">
<path d="M63.374 12.209H73.5406C75.8574 12.209 77.6442 12.7156 78.9008 13.7288C80.1575 14.7421 80.7809 16.1978 80.771 18.0961C80.8032 19.1896 80.4544 20.2599 79.7853 21.1208C79.0551 21.9979 78.0676 22.6184 76.9652 22.8929C78.4958 23.2654 79.6771 23.9262 80.5089 24.8754C81.3458 25.8456 81.7902 27.098 81.7537 28.3836C81.7537 30.5222 81.0052 32.1652 79.5083 33.3126C78.0114 34.46 75.8634 35.0327 73.0641 35.0307H63.374V12.209ZM72.3911 21.7996C72.9645 21.8373 73.5297 21.6476 73.9664 21.271C74.1598 21.075 74.3096 20.8397 74.4056 20.5807C74.5016 20.3217 74.5418 20.045 74.5233 19.7692C74.5402 19.5024 74.4991 19.2352 74.4029 18.9862C74.3067 18.7372 74.1577 18.5123 73.9664 18.3274C73.52 17.9718 72.9589 17.7953 72.3911 17.8318H70.2619V21.7996H72.3911ZM72.3911 29.4078C73.0017 29.4495 73.6067 29.267 74.0945 28.8942C74.2942 28.7147 74.4514 28.4922 74.5545 28.2432C74.6576 27.9942 74.7039 27.725 74.6901 27.4555C74.7054 27.1787 74.66 26.902 74.557 26.6449C74.4541 26.3879 74.2961 26.157 74.0945 25.9687C73.6104 25.585 73.0023 25.3966 72.3881 25.44H70.2619V29.4078H72.3911Z" fill="white"/>
<path d="M86.363 35.0983C85.359 34.8615 84.4043 34.4476 83.543 33.8758L83.8705 29.07C84.8781 29.7006 85.9716 30.1792 87.1165 30.4907C88.2086 30.8497 89.3454 31.0519 90.4934 31.0914C91.4344 31.0914 91.9049 30.8151 91.9049 30.2624C91.8951 30.1004 91.839 29.9447 91.7433 29.8141C91.6477 29.6835 91.5166 29.5836 91.3659 29.5265C90.9572 29.3187 90.5293 29.1518 90.0884 29.0279C89.5941 28.8878 89.2605 28.7946 89.0878 28.7486C87.6596 28.3502 86.3035 27.7246 85.0706 26.8953C84.0522 26.1685 83.544 25.0771 83.5459 23.6214C83.5459 21.8793 84.081 20.5887 85.151 19.7497C86.2211 18.9107 87.6862 18.4921 89.5464 18.4941C91.492 18.4941 93.7552 18.9347 96.3361 19.8157L96.0055 24.2822C95.0395 23.8436 94.0445 23.4733 93.0276 23.1738C92.1426 22.8744 91.2205 22.7015 90.2879 22.6602C89.5018 22.6602 89.0968 22.8945 89.0968 23.357C89.0974 23.48 89.1355 23.5998 89.2058 23.7002C89.2761 23.8007 89.3752 23.8769 89.4898 23.9187C89.8143 24.0731 90.1549 24.1899 90.5053 24.2672C90.9222 24.3663 91.2379 24.4474 91.4582 24.5134C92.8791 24.9048 94.2214 25.5432 95.4248 26.3997C96.4512 27.1707 96.9654 28.3391 96.9674 29.905C96.9674 31.7793 96.3003 33.181 94.9662 34.1101C93.6321 35.0392 91.9159 35.5078 89.8174 35.5158C88.6532 35.5229 87.4927 35.3826 86.363 35.0983Z" fill="white"/>
<path d="M110.041 34.6687C108.975 35.224 107.795 35.5183 106.595 35.5277C104.672 35.5277 103.19 35.0432 102.152 34.074C101.114 33.1048 100.596 31.7151 100.598 29.9049V23.6213H98.3018L99.2874 18.9897H100.598V13.6973H106.172V18.9897H109.123V23.6213H106.172V29.5745C106.172 30.6098 106.697 31.1284 107.748 31.1304C108.157 31.1523 108.566 31.0729 108.939 30.8991L110.041 34.6687Z" fill="white"/>
<path d="M123.977 20.1493C125.114 21.2506 125.683 22.8526 125.683 24.9551V35.0444H120.894L120.567 33.2572C120.007 33.9813 119.288 34.5652 118.467 34.9633C117.646 35.3501 116.75 35.5471 115.844 35.5399C114.401 35.5399 113.275 35.1214 112.467 34.2844C111.659 33.4474 111.254 32.301 111.252 30.8453C111.252 28.8809 112.017 27.3791 113.548 26.3398C115.079 25.3005 117.262 24.7819 120.099 24.7839V24.0901C120.099 23.231 119.368 22.8015 117.905 22.8015C117.081 22.8066 116.261 22.9073 115.46 23.1019C114.567 23.3144 113.695 23.6079 112.854 23.9789L111.836 20.1763C112.905 19.606 114.047 19.1885 115.23 18.9358C116.451 18.6461 117.699 18.496 118.953 18.4883C121.166 18.4923 122.841 19.046 123.977 20.1493ZM120.105 30.8663V27.5893C119.101 27.5893 118.33 27.7775 117.794 28.154C117.531 28.3366 117.319 28.5845 117.178 28.8738C117.037 29.1631 116.973 29.4842 116.99 29.806C116.968 30.2649 117.12 30.7151 117.416 31.0645C117.575 31.2241 117.765 31.3479 117.974 31.4277C118.184 31.5074 118.408 31.5413 118.631 31.5271C118.911 31.5375 119.189 31.4834 119.444 31.3689C119.7 31.2544 119.926 31.0825 120.105 30.8663V30.8663Z" fill="white"/>
<path d="M143.652 10.8857V35.032H139.063L138.503 32.7493C138.019 33.6092 137.333 34.3363 136.505 34.8668C135.728 35.3167 134.844 35.5451 133.947 35.5276C133.087 35.5567 132.233 35.364 131.467 34.9677C130.701 34.5714 130.048 33.9847 129.57 33.2629C128.508 31.7511 127.977 29.6175 127.977 26.8621C127.977 24.1709 128.502 22.1033 129.552 20.6596C130.602 19.2158 132.133 18.494 134.144 18.494C134.92 18.4841 135.691 18.6132 136.422 18.8754C137.053 19.0899 137.622 19.4583 138.078 19.9477V10.8857H143.652ZM138.078 30.1691V23.8194C137.563 23.3605 136.897 23.113 136.21 23.1256C135.842 23.1105 135.476 23.1943 135.15 23.3684C134.824 23.5426 134.55 23.8008 134.355 24.1168C133.929 24.7776 133.718 25.7388 133.718 26.9943C133.718 28.2498 133.929 29.217 134.355 29.8898C134.548 30.2091 134.821 30.471 135.147 30.6484C135.473 30.8257 135.84 30.9123 136.21 30.899C136.903 30.9082 137.572 30.6466 138.078 30.1691V30.1691Z" fill="white"/>
<path d="M146.571 14.6224C146.571 13.7414 146.812 13.0696 147.294 12.607C147.774 12.1444 148.485 11.9102 149.379 11.9102C150.272 11.9102 150.999 12.1444 151.463 12.607C151.928 13.0696 152.187 13.7424 152.187 14.6224C152.187 16.4246 151.246 17.3257 149.364 17.3257C147.482 17.3257 146.551 16.4246 146.571 14.6224ZM146.603 18.9897H152.181V35.0322H146.603V18.9897Z" fill="white"/>
<path d="M169.429 18.9893V35.0317H164.837L164.444 32.782C163.769 33.5909 162.964 34.2794 162.062 34.8185C161.221 35.2933 160.271 35.5377 159.307 35.5273C158.017 35.5273 156.979 35.1468 156.192 34.3859C155.795 33.9982 155.484 33.5302 155.279 33.0125C155.073 32.4949 154.979 31.9393 155.001 31.3823V18.9893H160.576V28.9013C160.555 29.3371 160.695 29.7652 160.969 30.1027C161.097 30.2553 161.258 30.3765 161.44 30.4572C161.622 30.5378 161.819 30.5758 162.017 30.5683C162.355 30.5514 162.683 30.448 162.97 30.2679C163.321 30.0715 163.626 29.801 163.864 29.475V18.9893H169.429Z" fill="white"/>
<path d="M194.482 19.6351C194.88 20.0225 195.191 20.4904 195.397 21.0081C195.602 21.5259 195.696 22.0816 195.673 22.6387V35.0438H190.089V25.1317C190.11 24.696 189.97 24.2681 189.696 23.9303C189.567 23.778 189.406 23.6573 189.224 23.5771C189.041 23.497 188.844 23.4596 188.645 23.4677C188.308 23.4844 187.981 23.5878 187.695 23.7681C187.343 23.9629 187.038 24.2336 186.802 24.5611V35.0468H181.233V25.1348C181.254 24.699 181.114 24.2711 180.84 23.9333C180.712 23.7811 180.55 23.6603 180.369 23.5802C180.187 23.5001 179.99 23.4626 179.792 23.4707C179.455 23.487 179.128 23.5904 178.842 23.7711C178.491 23.967 178.186 24.2376 177.949 24.5641V35.0498H172.38V18.9893H176.972L177.365 21.239C178.04 20.431 178.845 19.7435 179.747 19.2056C180.587 18.7283 181.538 18.4828 182.502 18.4937C183.421 18.4634 184.329 18.7113 185.107 19.2056C185.815 19.6764 186.333 20.3854 186.57 21.206C186.989 20.3623 187.666 19.6776 188.502 19.2536C189.373 18.7593 190.355 18.4977 191.355 18.4937C192.651 18.4937 193.694 18.8742 194.482 19.6351Z" fill="white"/>
<path d="M10.3989 41.7415C13.475 40.8194 14.1867 40.7834 16.0807 41.0477C17.2312 41.2088 18.3914 41.2891 19.5529 41.288L43.8824 41.327C44.9016 41.3369 45.9186 41.2301 46.914 41.0087C56.61 38.789 56.5862 27.5523 54.3587 22.8396C53.5778 21.2346 52.2683 19.9531 50.6542 19.2142C56.3122 15.9102 55.5975 5.43649 50.8329 2.03937C48.8972 0.462458 45.97 0.0689809 43.5876 0.0119116C42.1314 -0.00911387 40.7854 -0.00911387 39.2607 0.0689809C37.8581 0.150079 36.399 0.279236 35.0917 0.843921C33.4062 1.57381 32.3877 2.90442 31.2204 4.25005C30.2109 5.40345 28.8917 6.99538 27.221 7.02542C19.3356 7.16059 5.50317 7.30776 4.39539 7.02542V14.2342C4.92248 14.06 14.0885 14.4805 19.8239 14.1561C21.5572 14.0674 23.2238 13.454 24.6064 12.3959C24.9442 12.1387 25.2448 11.8355 25.4998 11.4948C28.0221 7.96256 30.2168 7.25069 32.5991 7.22066H43.6591C44.2496 7.22066 44.8343 7.33811 45.3797 7.56631C45.9251 7.7945 46.4205 8.12894 46.8377 8.5505C47.2548 8.97206 47.5854 9.47245 47.8105 10.023C48.0357 10.5736 48.151 11.1636 48.1498 11.7592V11.8793C48.1443 13.0725 47.6719 14.2153 46.8354 15.059C45.9989 15.9028 44.8659 16.3792 43.6829 16.3848C40.0797 16.3848 31.3097 16.3998 28.0042 16.3848C22.4624 16.3848 21.9055 22.7195 17.7126 22.7405C9.51739 22.7765 8.25476 22.7405 2.22748 22.7405C2.26619 22.7405 2.22748 28.8499 2.22748 29.4446C20.1128 30.3878 14.5113 26.2878 19.7048 23.8458C20.7851 23.3685 21.9563 23.1368 23.1354 23.167H43.7514C45.1572 23.1975 46.4953 23.7815 47.4798 24.7941C48.4643 25.8067 49.017 27.1676 49.0197 28.5858C49.0224 30.0041 48.475 31.3671 47.4944 32.3836C46.5138 33.4 45.1779 33.9892 43.7723 34.0252C38.8945 34.0462 26.9739 34.0252 21.1193 34.0252C8.52873 34.0642 15.9229 40.5551 4.62767 40.6032C3.29654 40.6032 1.7659 40.6993 0 40.6843V47.5175C6.33103 48.0552 6.73305 42.7658 10.4227 41.6634" fill="white"/>
</svg>
