<svg width="67" height="74" viewBox="0 0 67 74" fill="none" xmlns="http://www.w3.org/2000/svg">
<path d="M26.447 59.0115H12.308C10.3059 59.0115 8.67723 57.3828 8.67723 55.3808V51.405C8.99486 51.4789 9.32097 51.5199 9.65213 51.5199C9.80274 51.5199 9.95436 51.5122 10.1061 51.4963C10.3553 51.4706 10.5987 51.4227 10.835 51.3565V55.3808C10.835 56.193 11.4958 56.8537 12.308 56.8537H26.1638C26.7596 56.8537 27.2427 56.3708 27.2427 55.7748C27.2427 55.1788 26.7596 54.6959 26.1638 54.6959H12.9928V49.948C13 49.9393 13.0077 49.9311 13.0149 49.9223C13.7426 49.0262 14.0778 47.9004 13.9587 46.7523C13.8529 45.7323 13.3992 44.8037 12.671 44.0988C13.3804 43.8325 14.0097 43.3825 14.5 42.7788C15.9206 41.0295 15.7438 38.4961 14.1556 36.9556C14.8651 36.6893 15.4946 36.2393 15.985 35.6354C16.7126 34.7394 17.0478 33.6136 16.9287 32.4655C16.8096 31.3175 16.2506 30.2844 15.3545 29.5568L12.9928 27.6389V16.8433C12.9928 16.2473 12.5098 15.7644 11.9139 15.7644C11.3181 15.7644 10.835 16.2473 10.835 16.8433V25.8925C10.1976 25.4175 9.45548 25.1323 8.67723 25.0577V5.78853C8.67723 3.78652 10.3061 2.15781 12.3081 2.15781H36.319C38.321 2.15781 39.9497 3.78652 39.9497 5.78853V25.6973C39.9497 26.2933 40.4328 26.7762 41.0286 26.7762C41.6245 26.7762 42.1075 26.2933 42.1075 25.6973V5.78853C42.1074 2.5967 39.5107 0 36.3189 0H12.3081C9.11627 0 6.51942 2.5967 6.51942 5.78853V14.065C5.72708 13.5949 4.80871 13.3918 3.87597 13.4884C2.72787 13.6076 1.69486 14.1666 0.967244 15.0626C0.239632 15.9587 -0.0955473 17.0845 0.0235636 18.2326C0.142675 19.3806 0.70169 20.4137 1.59761 21.1413L6.51942 25.1382V25.4015C5.89654 25.6742 5.34313 26.0923 4.90208 26.6354C4.17446 27.5314 3.83928 28.6572 3.95839 29.8053C4.06413 30.8253 4.51784 31.7538 5.24603 32.4587C4.53669 32.725 3.90747 33.175 3.41707 33.7787C1.9958 35.529 2.17346 38.064 3.76376 39.6042C3.06923 39.8646 2.43254 40.3058 1.93222 40.9221C1.20446 41.8181 0.86928 42.9439 0.988391 44.092C1.1075 45.24 1.66652 46.2731 2.56244 47.0009L6.51942 50.2142V55.3807C6.51942 58.5725 9.11613 61.1692 12.308 61.1692H26.447C27.0429 61.1692 27.526 60.6863 27.526 60.0903C27.526 59.4943 27.0429 59.0115 26.447 59.0115V59.0115ZM2.95789 19.4661C2.50921 19.1019 2.22942 18.5848 2.16972 18.0099C2.11002 17.4351 2.2779 16.8715 2.64228 16.4228C3.00651 15.9742 3.52367 15.6944 4.09865 15.6346C4.67292 15.5752 5.23711 15.7428 5.68565 16.1072L6.51942 16.7843V22.3583L2.95789 19.4661ZM6.57725 27.9955C6.94149 27.547 7.45864 27.2672 8.03363 27.2073C8.10958 27.1994 8.18539 27.1955 8.26092 27.1955C8.75549 27.1955 9.2315 27.3639 9.62077 27.6799L13.9945 31.2315C14.443 31.5957 14.723 32.1129 14.7827 32.6877C14.8422 33.2626 14.6745 33.8262 14.3101 34.2749C13.9459 34.7234 13.4287 35.0032 12.8537 35.0631C12.3026 35.1202 11.7626 34.9661 11.3234 34.6321L6.89301 31.0387C6.44433 30.6745 6.16454 30.1574 6.10484 29.5825C6.04514 29.0077 6.21287 28.4442 6.57725 27.9955V27.9955ZM5.09225 35.139C5.45649 34.6905 5.97364 34.4107 6.54863 34.3508C7.09944 34.2937 7.63961 34.4478 8.0788 34.7817L12.5093 38.3751C13.4355 39.1272 13.577 40.4925 12.825 41.4185C12.4607 41.867 11.9436 42.147 11.3686 42.2067C10.8182 42.2635 10.2789 42.1102 9.84 41.7771L5.40786 38.1825C4.48173 37.4305 4.34018 36.0651 5.09225 35.139V35.139ZM3.60725 42.2825C4.03421 41.7567 4.65896 41.4837 5.28875 41.4837C5.74276 41.4837 6.19863 41.6275 6.5856 41.9185L11.0242 45.5185C11.4729 45.8827 11.7527 46.4 11.8124 46.9749C11.8721 47.5496 11.7042 48.1132 11.3398 48.5619C10.9756 49.0104 10.4583 49.2903 9.88344 49.35C9.30889 49.4094 8.74513 49.2417 8.29645 48.8775L3.92272 45.3259C2.99673 44.5738 2.85518 43.2085 3.60725 42.2825V42.2825Z" fill="white"/>
<path d="M36.7128 22.5244C37.3087 22.5244 37.7917 22.0415 37.7917 21.4455V5.78835C37.7917 4.97615 37.131 4.31543 36.3188 4.31543H33.4396C32.5031 4.31543 31.6474 4.78152 31.1509 5.5625C30.6396 6.3665 29.7664 6.84639 28.8152 6.84639H19.9024C18.951 6.84639 18.0779 6.36635 17.5666 5.5625C17.07 4.78152 16.2145 4.31543 15.2779 4.31543H12.3079C11.4957 4.31543 10.835 4.97629 10.835 5.78835V12.2451C10.835 12.8411 11.318 13.324 11.9139 13.324C12.5097 13.324 12.9928 12.8411 12.9928 12.2451V6.47324H15.2779C15.4695 6.47324 15.6489 6.56789 15.7457 6.72038C16.6551 8.15043 18.209 9.0042 19.9022 9.0042H28.8151C30.5084 9.0042 32.0622 8.15043 32.9716 6.72052C33.0686 6.56789 33.2478 6.47324 33.4396 6.47324H35.6339V21.4455C35.6339 22.0415 36.117 22.5244 36.7128 22.5244V22.5244Z" fill="white"/>
<path d="M66.7431 71.4057L53.6105 55.9571C53.3763 55.6814 53.2473 55.3306 53.2473 54.9688V49.4142C53.2473 45.5231 51.7775 41.8208 49.1088 38.9892L35.6229 24.6812C35.0973 24.1235 34.3558 23.8089 33.5901 23.8269C32.8238 23.8417 32.0953 24.1814 31.5917 24.7589L31.3246 25.0653C29.0833 27.6351 28.9783 31.4522 31.0748 34.1416L36.0737 40.5539C36.3957 40.9669 36.4363 41.5278 36.1769 41.9828L34.9603 44.1172C34.6653 44.6349 34.8457 45.2938 35.3634 45.5887C35.8808 45.8837 36.5398 45.7035 36.8349 45.1856L38.0516 43.0512C38.7455 41.8336 38.6372 40.3327 37.7757 39.2272L32.7768 32.8149C31.3142 30.9389 31.3876 28.2762 32.951 26.4836L33.2181 26.1772C33.361 26.0133 33.5386 25.986 33.6318 25.9841C33.7245 25.9801 33.9036 26.003 34.0526 26.1611L47.5385 40.4692C49.8283 42.8987 51.0895 46.0753 51.0895 49.414V54.9686C51.0895 55.8418 51.4009 56.6891 51.9666 57.3545L65.0991 72.803C65.3124 73.0541 65.6161 73.1832 65.9217 73.1832C66.1687 73.1832 66.4169 73.099 66.6199 72.9263C67.0738 72.5405 67.1289 71.8595 66.7431 71.4057V71.4057Z" fill="white"/>
<path d="M40.3258 68.4073C40.1582 68.1887 39.9135 68.0425 39.6416 67.9985C35.8906 67.3921 32.8569 64.484 32.0925 60.7621L31.6948 58.8257C31.2449 56.6348 31.6071 54.358 32.7148 52.4148L34.5583 49.1806C34.8533 48.6628 34.6729 48.004 34.1552 47.7091C33.6377 47.4142 32.9786 47.5944 32.6837 48.1122L30.8402 51.3464C29.4729 53.745 29.0258 56.5555 29.5812 59.26L29.9788 61.1964C30.8929 65.6473 34.436 69.1554 38.8664 70.0506L40.9441 72.7612C41.1565 73.0384 41.477 73.1838 41.8011 73.1838C42.0302 73.1838 42.2609 73.1112 42.4567 72.9612C42.9297 72.5986 43.0191 71.9214 42.6566 71.4485L40.3258 68.4073Z" fill="white"/>
<path d="M18.9073 21.558C18.4993 21.1237 17.8166 21.1024 17.3822 21.5103C16.9479 21.9184 16.9266 22.6011 17.3346 23.0354C19.0562 24.8681 21.3891 25.8774 23.9035 25.8774C26.4179 25.8774 28.7506 24.8681 30.4721 23.0354C30.8801 22.6011 30.8588 21.9182 30.4245 21.5103C29.9901 21.1024 29.3074 21.1236 28.8994 21.558C27.59 22.9518 25.8157 23.7194 23.9034 23.7194C21.991 23.7194 20.2167 22.952 18.9073 21.558V21.558Z" fill="white"/>
<path d="M21.8199 16.4025V14.5447C21.8199 13.9487 21.3369 13.4658 20.741 13.4658C20.1452 13.4658 19.6621 13.9487 19.6621 14.5447V16.4025C19.6621 16.9984 20.1452 17.4814 20.741 17.4814C21.3369 17.4814 21.8199 16.9983 21.8199 16.4025Z" fill="white"/>
<path d="M27.8004 16.4025V14.5447C27.8004 13.9487 27.3173 13.4658 26.7215 13.4658C26.1256 13.4658 25.6426 13.9487 25.6426 14.5447V16.4025C25.6426 16.9984 26.1256 17.4814 26.7215 17.4814C27.3173 17.4814 27.8004 16.9983 27.8004 16.4025Z" fill="white"/>
<path d="M23.9039 39.5479C21.1369 39.5479 18.8857 41.7989 18.8857 44.566C18.8857 47.3332 21.1369 49.5842 23.9039 49.5842C26.671 49.5842 28.9221 47.3332 28.9221 44.566C28.9221 41.7989 26.671 39.5479 23.9039 39.5479V39.5479ZM23.9039 47.4264C22.3267 47.4264 21.0435 46.1433 21.0435 44.566C21.0435 42.9888 22.3267 41.7057 23.9039 41.7057C25.4811 41.7057 26.7643 42.9888 26.7643 44.566C26.7643 46.1433 25.4811 47.4264 23.9039 47.4264V47.4264Z" fill="white"/>
</svg>
